<svg width="336" height="330" viewBox="0 0 336 330" fill="none" xmlns="http://www.w3.org/2000/svg">
<g id="rule-advanced" clip-path="url(#clip0_0_784)">
<g id="Group 8">
<g id="Group 6">
<ellipse id="Oval Copy" cx="284.5" cy="142.172" rx="51.5" ry="50.1724" fill="#B1B4C5"/>
<ellipse id="Oval Copy 4" cx="284.5" cy="142.172" rx="51.5" ry="50.1724" fill="url(#paint0_linear_0_784)"/>
<g id="Group 5">
<ellipse id="Oval Copy 2" cx="284.5" cy="143.207" rx="39.5354" ry="39.3103" fill="#E1E4ED"/>
<g id="001-five-fingers">
<path id="Path" d="M299.861 133.029C299.569 132.918 299.266 132.869 298.986 132.889C298.582 132.917 298.255 133.081 298.061 133.35C296.921 134.945 295.988 137.957 295.235 140.377C294.889 141.496 294.425 142.994 294.089 143.705C293.739 141.713 294.135 134.418 294.288 131.608L294.291 131.563C294.397 129.611 294.412 129.268 294.388 129.118C294.219 128.047 293.789 127.345 293.111 127.03C292.425 126.711 291.533 126.852 290.573 127.429C290.092 127.72 289.959 128.717 289.546 133.24L289.544 133.26C289.317 135.745 288.793 141.465 288.149 142.418C287.422 141.085 286.422 133.512 285.99 130.233C285.688 127.937 285.512 126.619 285.394 126.221C285.145 125.387 284.094 124.677 283.053 124.638C282.186 124.595 281.475 125.035 281.136 125.8C280.501 126.505 280.726 128.845 281.427 134.386C281.761 137.023 282.45 142.47 282.017 143.081C281.152 142.987 279.667 139.575 277.602 132.937C277.023 131.078 276.844 130.519 276.666 130.274C276.315 129.421 275.123 128.764 274.055 128.838C273.964 128.845 273.875 128.856 273.787 128.873C273.228 128.984 271.952 129.498 272.224 131.871C272.977 135.161 273.796 137.576 274.591 139.921L274.607 139.968C275.082 141.372 275.531 142.698 275.949 144.171C276.933 147.647 276.551 149.804 276.546 149.829C276.513 150.051 276.445 150.186 276.341 150.234C276.304 150.251 276.257 150.262 276.203 150.265C275.891 150.287 275.423 150.081 275.182 149.946C274.631 148.895 271.889 143.884 269.404 143.189L269.315 143.163L269.224 143.172C268.313 143.257 267.643 143.602 267.233 144.194C266.584 145.131 266.853 146.324 266.918 146.563L266.955 146.649C266.975 146.685 268.968 150.313 269.276 152.001C269.542 153.448 270.918 155.016 272.024 156.276L272.07 156.327C272.431 156.74 272.742 157.096 272.988 157.426C276.198 160.77 281.274 163.582 281.315 163.605C281.949 164.072 282.301 164.523 282.338 164.911C282.362 165.165 282.229 165.317 282.225 165.322L282.114 165.437L282.816 166.118L296.209 165.179L296.779 162.566C298.545 155.185 298.177 148.893 298.171 148.851C298.177 148.619 298.672 146.38 299.07 144.571L299.082 144.525C299.875 140.922 300.862 136.438 301.051 134.732C301.133 134.003 300.666 133.333 299.861 133.029Z" fill="#8A90AC"/>
</g>
</g>
</g>
</g>
<g id="Group 8 Copy 4">
<g id="Group 6_2">
<ellipse id="Oval" cx="51.5" cy="144.5" rx="51.5" ry="52.5" fill="#B1B4C5"/>
<ellipse id="Oval Copy 4_2" cx="51.5" cy="142.172" rx="51.5" ry="50.1724" fill="url(#paint1_linear_0_784)"/>
<g id="Group 5_2">
<ellipse id="Oval Copy 2_2" cx="51.5" cy="143.207" rx="39.5354" ry="39.3103" fill="#E1E4ED"/>
<g id="001-five-fingers_2">
<g id="vulcan-salute">
<path id="Path_2" d="M68.9329 146.218L68.3199 145.609C66.8551 144.151 64.4606 143.834 62.6723 144.856L58.8536 147.026L59.6495 129.643C59.6495 128.186 58.4574 127 56.9908 127C56.6741 127 56.3693 127.056 56.0865 127.157L56.1814 126.225C56.1815 124.751 54.9706 123.552 53.4838 123.552C52.1088 123.552 50.9556 124.577 50.8099 125.892L48.3595 140.613C48.3273 140.813 47.9785 140.793 47.9412 140.667L45.0471 128.865C44.7305 127.767 43.7076 127 42.5595 127C41.7653 127 41.027 127.355 40.5325 127.975C40.0397 128.595 39.8603 129.392 40.0431 130.16L40.6054 132.537C40.2853 132.511 39.9636 132.554 39.657 132.657C38.5157 133.035 37.8197 134.168 38.0043 135.365L39.7079 145.103C39.7079 148.946 40.3852 151.789 40.9542 153.496C41.2776 154.47 41.4419 155.495 41.4419 156.541C41.4419 157.452 41.3149 158.359 41.0626 159.234L39.7417 163.832C39.6671 164.093 39.7196 164.372 39.8822 164.588C40.0465 164.804 40.3022 164.931 40.5748 164.931H56.1814C56.4608 164.931 56.7216 164.798 56.8842 164.573C57.0484 164.349 57.0925 164.059 57.0044 163.796C56.9959 163.774 56.2711 161.548 56.957 158.519C57.8274 157.817 60.8739 155.354 61.9678 154.361C63.7764 152.718 68.7313 147.643 68.9414 147.428C69.2716 147.09 69.2682 146.551 68.9329 146.218Z" fill="#8A90AC"/>
</g>
</g>
</g>
</g>
</g>
<g id="Group 8 Copy">
<g id="Group 6_3">
<ellipse id="Oval_2" cx="168.5" cy="52.5" rx="51.5" ry="52.5" fill="#B1B4C5"/>
<ellipse id="Oval Copy 4_3" cx="168.5" cy="50.1724" rx="51.5" ry="50.1724" fill="url(#paint2_linear_0_784)"/>
<g id="Group 5_3">
<ellipse id="Oval Copy 2_3" cx="168.5" cy="51.2068" rx="39.5354" ry="39.3103" fill="#E1E4ED"/>
<g id="hand">
<path id="Path_3" d="M158.179 50.8704L162.45 44.8999C160.675 44.6057 157.415 44.5405 154.745 47.1953C150.536 51.3802 148.832 60.4205 148.476 62.6088L159.173 73.2447C161.099 73.0808 169.624 71.949 177.84 63.7806C177.927 63.6042 179.928 62.1339 178.292 60.5072C177.511 59.7307 176.218 59.7452 175.42 60.5385C175.014 60.9424 174.383 60.9483 173.985 60.5528C173.587 60.1573 173.593 59.5292 173.999 59.1253L176.902 56.2389C178.377 54.772 176.987 52.2974 174.928 52.8919L172.551 54.9149C172.117 55.2911 171.472 55.2259 171.115 54.816C170.747 54.3916 170.826 53.749 171.245 53.3872C179.547 46.1449 178.335 47.0172 183.676 42.0395C185.671 40.3875 183.161 37.4653 181.195 39.1384L168.274 50.6911C167.898 51.0094 167.322 51.0154 166.952 50.6766C166.525 50.31 166.516 49.7819 166.795 49.3648L175.807 35.4338C177.124 33.6599 174.532 31.6898 173.144 33.4781L159.819 52.0086C159.497 52.4705 158.85 52.5765 158.408 52.2534C157.966 51.958 157.845 51.3165 158.179 50.8704Z" fill="#8A90AC"/>
</g>
</g>
</g>
</g>
<g id="Group 8 Copy 2">
<g id="Group 6_4">
<ellipse id="Oval_3" cx="238.5" cy="277.5" rx="51.5" ry="52.5" fill="#B1B4C5"/>
<ellipse id="Oval Copy 4_4" cx="238.5" cy="275.172" rx="51.5" ry="50.1724" fill="url(#paint3_linear_0_784)"/>
<g id="Group 5_4">
<ellipse id="Oval Copy 2_4" cx="238.5" cy="276.207" rx="39.5354" ry="39.3103" fill="#E1E4ED"/>
<g id="003-fist">
<path id="Path_4" d="M253.815 270.561C253.359 264.818 246.901 265.404 246.901 265.404C244.175 260.605 239.916 264.081 239.916 264.081C236.645 259.377 232.543 263.736 232.543 263.736C225.47 262.974 225.744 268.749 225.744 268.749C225.578 270.585 226.741 276.265 226.741 276.265C225.692 272.991 223.416 275.709 223.416 275.709C220.618 280.021 222.724 282.381 222.724 282.381C226.51 286.812 234.578 292.131 234.578 292.131C237.499 293.802 236.264 295.293 236.264 295.293L253.934 292.377L254.34 289.03C257.026 280.916 253.815 270.561 253.815 270.561Z" fill="#8A90AC"/>
</g>
</g>
</g>
</g>
<g id="Group 8 Copy 3">
<g id="Group 6_5">
<ellipse id="Oval_4" cx="97.5" cy="277.5" rx="51.5" ry="52.5" fill="#B1B4C5"/>
<ellipse id="Oval Copy 4_5" cx="97.5" cy="275.172" rx="51.5" ry="50.1724" fill="url(#paint4_linear_0_784)"/>
<g id="Group 5_5">
<ellipse id="Oval Copy 2_5" cx="97.5" cy="276.207" rx="39.5354" ry="39.3103" fill="#E1E4ED"/>
<g id="lizard">
<path id="Combined Shape" fill-rule="evenodd" clip-rule="evenodd" d="M116.465 257.548C114.766 256.687 112.568 256.994 110.275 258.413C108.461 259.535 106.796 261.239 105.93 262.86C104.275 265.956 104.924 268.686 105.341 269.839C104.77 271.65 103.982 273.155 102.98 274.352C102.172 273.341 101.721 272.067 101.721 270.735V270.67L103.845 268.481C104.072 268.247 104.659 267.325 103.845 266.485C103.31 265.934 102.444 265.934 101.909 266.485L101.721 266.679V266.238C101.721 265.459 101.108 264.827 100.353 264.827C99.5968 264.827 98.9839 265.459 98.9839 266.238V266.679L98.796 266.485C98.2616 265.934 97.3949 265.934 96.8604 266.485C96.3259 267.036 96.3259 267.93 96.8604 268.481L98.984 270.67V270.735C98.984 272.751 99.6729 274.678 100.908 276.199C98.6901 277.641 95.8168 278.129 92.3044 277.654C91.0372 277.483 89.7577 277.461 88.5035 277.587C86.9306 276.001 84.7748 275.101 82.5042 275.101H82.4402L80.2863 272.985C79.7442 272.453 78.8651 272.453 78.323 272.985C77.7809 273.518 77.7809 274.382 78.323 274.914L78.5136 275.102H78.0801C77.3135 275.102 76.6919 275.712 76.6919 276.465C76.6919 277.219 77.3135 277.829 78.0801 277.829H78.5137L78.323 278.016C77.7809 278.549 77.7809 279.413 78.323 279.945C78.5941 280.212 78.9494 280.345 79.3046 280.345C79.6599 280.345 80.0153 280.212 80.2864 279.945L82.4403 277.829H82.5042C83.3448 277.829 84.1614 278.014 84.9018 278.359C85.0017 278.332 85.1019 278.305 85.2024 278.28C85.1717 278.29 85.141 278.3 85.1104 278.31C82.7614 279.099 80.6427 280.467 78.9836 282.267C76.1225 285.372 75.0747 289.244 75.9535 293.465C76.6006 296.573 78.0757 298.775 78.1382 298.868C78.4028 299.258 78.8397 299.483 79.2962 299.483C79.4078 299.483 79.5205 299.469 79.6321 299.442C80.2008 299.301 80.6219 298.82 80.6876 298.236C80.6949 298.172 81.4539 291.787 85.3734 288.174C85.8726 287.714 87.7599 286.247 91.0876 286.698C92.2622 286.857 93.3984 286.951 94.4955 286.982C95.0972 288.15 95.2827 289.5 95.0011 290.808L94.9874 290.872L92.4175 292.541C91.7707 292.961 91.5832 293.831 91.9989 294.485C92.4146 295.139 93.2759 295.328 93.9229 294.908L94.1502 294.761L94.0577 295.19C93.8943 295.949 94.3708 296.699 95.1221 296.864C95.2219 296.886 95.3213 296.896 95.4195 296.896C96.0601 296.896 96.6367 296.447 96.7786 295.788L96.8711 295.359L97.0172 295.589C97.2832 296.007 97.7317 296.236 98.1897 296.236C98.4473 296.236 98.7081 296.163 98.9411 296.012C99.5878 295.592 99.7754 294.721 99.3596 294.068L97.7082 291.47L97.7219 291.407C98.0484 289.89 97.956 288.336 97.4792 286.9C101.267 286.57 104.507 285.366 107.158 283.295C107.471 283.05 107.776 282.794 108.071 282.527C109.581 283.826 111.523 284.553 113.557 284.553H113.621L115.767 286.669C116.037 286.936 116.391 287.069 116.745 287.069C117.099 287.069 117.453 286.936 117.723 286.669C118.264 286.137 118.264 285.273 117.723 284.741L117.534 284.553H117.965C118.729 284.553 119.348 283.943 119.348 283.19C119.348 282.436 118.729 281.826 117.965 281.826H117.533L117.723 281.638C118.263 281.106 118.263 280.242 117.723 279.71C117.183 279.177 116.307 279.177 115.767 279.71L113.621 281.826H113.557C112.224 281.826 110.95 281.359 109.95 280.523C111.477 278.607 112.674 276.29 113.525 273.595C115.725 272.814 117.283 271.53 118.162 269.773C119.72 266.661 120.271 259.478 116.465 257.548Z" fill="#8A90AC"/>
</g>
</g>
</g>
</g>
<g id="Group 13 Copy 2">
<g id="Group 15">
<rect id="Rectangle" x="80.2372" y="88.2275" width="32.6923" height="2.66667" rx="1.33333" transform="rotate(-40 80.2372 88.2275)" fill="#B1B4C5"/>
<g id="Group 12">
<g id="Group 14">
<path id="Rectangle Copy 2" fill-rule="evenodd" clip-rule="evenodd" d="M96.5229 67.6304C96.5773 66.9482 97.1832 66.4448 97.8638 66.5165L105.907 67.3638C106.564 67.4329 107.045 68.0129 106.993 68.671C106.939 69.3533 106.333 69.8566 105.652 69.7849L97.6088 68.9377C96.9522 68.8685 96.4705 68.2886 96.5229 67.6304Z" fill="#B1B4C5"/>
<path id="Rectangle Copy 3" fill-rule="evenodd" clip-rule="evenodd" d="M105.064 77.8087C104.406 77.7461 103.919 77.1709 103.965 76.5123L104.527 68.4441C104.575 67.7614 105.176 67.252 105.857 67.317C106.514 67.3796 107.002 67.9548 106.956 68.6134L106.394 76.6816C106.346 77.3643 105.745 77.8737 105.064 77.8087Z" fill="#B1B4C5"/>
</g>
</g>
</g>
</g>
<g id="Group 13 Copy 3">
<g id="Group 15_2">
<rect id="Rectangle_2" width="32.6923" height="2.66667" rx="1.33333" transform="matrix(0.766044 0.642788 0.642788 -0.766044 228.237 67.7725)" fill="#B1B4C5"/>
<g id="Group 12_2">
<g id="Group 14_2">
<path id="Rectangle Copy 2_2" fill-rule="evenodd" clip-rule="evenodd" d="M244.523 88.3696C244.577 89.0518 245.183 89.5552 245.864 89.4835L253.907 88.6362C254.564 88.5671 255.045 87.9871 254.993 87.329C254.939 86.6467 254.333 86.1434 253.652 86.2151L245.609 87.0623C244.952 87.1315 244.47 87.7114 244.523 88.3696Z" fill="#B1B4C5"/>
<path id="Rectangle Copy 3_2" fill-rule="evenodd" clip-rule="evenodd" d="M253.064 78.1913C252.406 78.2539 251.919 78.8291 251.965 79.4877L252.527 87.5559C252.575 88.2386 253.176 88.748 253.857 88.683C254.514 88.6204 255.002 88.0452 254.956 87.3866L254.394 79.3184C254.346 78.6357 253.745 78.1263 253.064 78.1913Z" fill="#B1B4C5"/>
</g>
</g>
</g>
</g>
<g id="Group 13 Copy 4">
<g id="Group 15_3">
<rect id="Rectangle_3" x="300.097" y="204.826" width="32.6923" height="2.66667" rx="1.33333" transform="rotate(127 300.097 204.826)" fill="#B1B4C5"/>
<g id="Group 12_3">
<g id="Group 14_3">
<path id="Rectangle Copy 2_3" fill-rule="evenodd" clip-rule="evenodd" d="M288.862 228.559C288.962 229.236 288.485 229.863 287.806 229.946L279.778 230.93C279.123 231.01 278.523 230.554 278.426 229.901C278.325 229.224 278.802 228.597 279.482 228.514L287.509 227.53C288.165 227.45 288.765 227.906 288.862 228.559Z" fill="#B1B4C5"/>
<path id="Rectangle Copy 3_3" fill-rule="evenodd" clip-rule="evenodd" d="M278.25 220.563C278.904 220.476 279.509 220.927 279.612 221.579L280.879 229.567C280.986 230.243 280.516 230.874 279.837 230.964C279.183 231.051 278.578 230.6 278.475 229.948L277.208 221.96C277.101 221.284 277.571 220.653 278.25 220.563Z" fill="#B1B4C5"/>
</g>
</g>
</g>
</g>
<g id="Group 13 Copy 6">
<g id="Group 15_4">
<rect id="Rectangle_4" width="32.6923" height="2.66667" rx="1.33333" transform="matrix(-1 0 0 1 186 303.667)" fill="#B1B4C5"/>
<g id="Group 12_4">
<g id="Group 14_4">
<path id="Rectangle Copy 2_4" fill-rule="evenodd" clip-rule="evenodd" d="M160.285 298.357C159.804 297.869 159.017 297.873 158.541 298.365L152.924 304.184C152.466 304.659 152.47 305.413 152.933 305.884C153.413 306.371 154.201 306.368 154.676 305.875L160.293 300.056C160.752 299.581 160.748 298.827 160.285 298.357Z" fill="#B1B4C5"/>
<path id="Rectangle Copy 3_4" fill-rule="evenodd" clip-rule="evenodd" d="M160.285 311.643C160.748 311.173 160.752 310.419 160.293 309.944L154.676 304.125C154.201 303.632 153.413 303.629 152.933 304.116C152.47 304.587 152.466 305.341 152.924 305.816L158.541 311.635C159.017 312.127 159.804 312.131 160.285 311.643Z" fill="#B1B4C5"/>
</g>
</g>
</g>
</g>
<g id="Group 13 Copy 5">
<g id="Group 15_5">
<rect id="Rectangle_5" width="32.6923" height="2.66667" rx="1.33333" transform="matrix(-0.601815 -0.798635 -0.798635 0.601815 59.0967 231.174)" fill="#B1B4C5"/>
<g id="Group 12_5">
<g id="Group 14_5">
<path id="Rectangle Copy 2_5" fill-rule="evenodd" clip-rule="evenodd" d="M47.8617 207.441C47.9622 206.764 47.485 206.137 46.8057 206.054L38.778 205.07C38.1227 204.99 37.5228 205.446 37.4258 206.099C37.3253 206.776 37.8025 207.403 38.4818 207.486L46.5095 208.47C47.1648 208.55 47.7647 208.094 47.8617 207.441Z" fill="#B1B4C5"/>
<path id="Rectangle Copy 3_5" fill-rule="evenodd" clip-rule="evenodd" d="M37.2501 215.437C37.9045 215.524 38.5089 215.073 38.6124 214.421L39.8794 206.433C39.9866 205.757 39.5156 205.126 38.8372 205.036C38.1827 204.949 37.5783 205.4 37.4749 206.052L36.2079 214.04C36.1007 214.716 36.5716 215.347 37.2501 215.437Z" fill="#B1B4C5"/>
</g>
</g>
</g>
</g>
<g id="Group 20">
<g id="Group 19" clip-path="url(#clip1_0_784)">
<g id="Group 15_6">
<rect id="Rectangle_6" width="85" height="2.66667" rx="1.33333" transform="matrix(-1 0 0 1 211.308 137.667)" fill="#B1B4C5"/>
<g id="Group 12_6">
<g id="Group 14_6">
<path id="Rectangle Copy 2_6" fill-rule="evenodd" clip-rule="evenodd" d="M133.285 132.357C132.804 131.869 132.017 131.873 131.541 132.365L125.924 138.184C125.466 138.659 125.47 139.413 125.933 139.884C126.413 140.371 127.201 140.368 127.676 139.875L133.293 134.056C133.752 133.581 133.748 132.827 133.285 132.357Z" fill="#B1B4C5"/>
<path id="Rectangle Copy 3_6" fill-rule="evenodd" clip-rule="evenodd" d="M133.285 145.643C133.748 145.173 133.752 144.419 133.293 143.944L127.676 138.125C127.201 137.632 126.413 137.629 125.933 138.116C125.47 138.587 125.466 139.341 125.924 139.816L131.541 145.635C132.017 146.127 132.804 146.131 133.285 145.643Z" fill="#B1B4C5"/>
</g>
</g>
</g>
<path id="BEATS" d="M163.054 146.836C163.054 147.216 162.93 147.506 162.682 147.706C162.438 147.902 162.122 148 161.734 148H160.39C160.37 148 160.352 147.994 160.336 147.982C160.324 147.966 160.318 147.948 160.318 147.928V143.872C160.318 143.852 160.324 143.836 160.336 143.824C160.352 143.808 160.37 143.8 160.39 143.8H161.644C162.072 143.8 162.404 143.896 162.64 144.088C162.876 144.276 162.994 144.564 162.994 144.952C162.994 145.348 162.84 145.634 162.532 145.81C162.512 145.822 162.51 145.834 162.526 145.846C162.878 146.046 163.054 146.376 163.054 146.836ZM161.194 144.526C161.174 144.526 161.164 144.536 161.164 144.556V145.498C161.164 145.518 161.174 145.528 161.194 145.528H161.65C161.81 145.528 161.936 145.484 162.028 145.396C162.12 145.308 162.166 145.186 162.166 145.03C162.166 144.87 162.12 144.746 162.028 144.658C161.94 144.57 161.814 144.526 161.65 144.526H161.194ZM161.698 147.268C161.858 147.268 161.982 147.222 162.07 147.13C162.162 147.034 162.208 146.9 162.208 146.728C162.208 146.556 162.162 146.422 162.07 146.326C161.982 146.226 161.858 146.176 161.698 146.176H161.194C161.174 146.176 161.164 146.186 161.164 146.206V147.238C161.164 147.258 161.174 147.268 161.194 147.268H161.698ZM166.138 144.454C166.138 144.474 166.13 144.492 166.114 144.508C166.102 144.52 166.086 144.526 166.066 144.526H164.458C164.438 144.526 164.428 144.536 164.428 144.556V145.492C164.428 145.512 164.438 145.522 164.458 145.522H165.46C165.48 145.522 165.496 145.53 165.508 145.546C165.524 145.558 165.532 145.574 165.532 145.594V146.176C165.532 146.196 165.524 146.214 165.508 146.23C165.496 146.242 165.48 146.248 165.46 146.248H164.458C164.438 146.248 164.428 146.258 164.428 146.278V147.244C164.428 147.264 164.438 147.274 164.458 147.274H166.066C166.086 147.274 166.102 147.282 166.114 147.298C166.13 147.31 166.138 147.326 166.138 147.346V147.928C166.138 147.948 166.13 147.966 166.114 147.982C166.102 147.994 166.086 148 166.066 148H163.654C163.634 148 163.616 147.994 163.6 147.982C163.588 147.966 163.582 147.948 163.582 147.928V143.872C163.582 143.852 163.588 143.836 163.6 143.824C163.616 143.808 163.634 143.8 163.654 143.8H166.066C166.086 143.8 166.102 143.808 166.114 143.824C166.13 143.836 166.138 143.852 166.138 143.872V144.454ZM168.913 148C168.869 148 168.841 147.98 168.829 147.94L168.691 147.352C168.687 147.336 168.677 147.328 168.661 147.328H167.539C167.523 147.328 167.513 147.336 167.509 147.352L167.371 147.94C167.359 147.98 167.333 148 167.293 148H166.567C166.515 148 166.495 147.974 166.507 147.922L167.587 143.86C167.599 143.82 167.627 143.8 167.671 143.8H168.541C168.585 143.8 168.613 143.82 168.625 143.86L169.705 147.922L169.711 147.946C169.711 147.982 169.689 148 169.645 148H168.913ZM167.671 146.638C167.667 146.65 167.669 146.66 167.677 146.668C167.685 146.672 167.693 146.674 167.701 146.674H168.493C168.501 146.674 168.509 146.672 168.517 146.668C168.525 146.66 168.527 146.65 168.523 146.638L168.109 144.898C168.105 144.882 168.099 144.874 168.091 144.874C168.083 144.874 168.077 144.882 168.073 144.898L167.671 146.638ZM172.326 143.8C172.346 143.8 172.362 143.808 172.374 143.824C172.39 143.836 172.398 143.852 172.398 143.872V144.46C172.398 144.48 172.39 144.498 172.374 144.514C172.362 144.526 172.346 144.532 172.326 144.532H171.414C171.394 144.532 171.384 144.542 171.384 144.562V147.928C171.384 147.948 171.376 147.966 171.36 147.982C171.348 147.994 171.332 148 171.312 148H170.61C170.59 148 170.572 147.994 170.556 147.982C170.544 147.966 170.538 147.948 170.538 147.928V144.562C170.538 144.542 170.528 144.532 170.508 144.532H169.626C169.606 144.532 169.588 144.526 169.572 144.514C169.56 144.498 169.554 144.48 169.554 144.46V143.872C169.554 143.852 169.56 143.836 169.572 143.824C169.588 143.808 169.606 143.8 169.626 143.8H172.326ZM174.117 148.048C173.841 148.048 173.599 148 173.391 147.904C173.183 147.804 173.021 147.666 172.905 147.49C172.793 147.31 172.737 147.104 172.737 146.872V146.716C172.737 146.696 172.743 146.68 172.755 146.668C172.771 146.652 172.789 146.644 172.809 146.644H173.499C173.519 146.644 173.535 146.652 173.547 146.668C173.563 146.68 173.571 146.696 173.571 146.716V146.83C173.571 146.97 173.623 147.088 173.727 147.184C173.831 147.276 173.971 147.322 174.147 147.322C174.303 147.322 174.421 147.282 174.501 147.202C174.585 147.122 174.627 147.02 174.627 146.896C174.627 146.804 174.601 146.726 174.549 146.662C174.497 146.594 174.423 146.532 174.327 146.476C174.235 146.416 174.091 146.336 173.895 146.236C173.655 146.116 173.459 146.004 173.307 145.9C173.155 145.796 173.025 145.662 172.917 145.498C172.809 145.334 172.755 145.136 172.755 144.904C172.755 144.672 172.809 144.47 172.917 144.298C173.029 144.122 173.185 143.988 173.385 143.896C173.585 143.8 173.813 143.752 174.069 143.752C174.337 143.752 174.575 143.804 174.783 143.908C174.991 144.008 175.153 144.15 175.269 144.334C175.385 144.518 175.443 144.73 175.443 144.97V145.09C175.443 145.11 175.435 145.128 175.419 145.144C175.407 145.156 175.391 145.162 175.371 145.162H174.681C174.661 145.162 174.643 145.156 174.627 145.144C174.615 145.128 174.609 145.11 174.609 145.09V144.982C174.609 144.838 174.559 144.718 174.459 144.622C174.359 144.526 174.223 144.478 174.051 144.478C173.907 144.478 173.793 144.516 173.709 144.592C173.629 144.664 173.589 144.766 173.589 144.898C173.589 144.99 173.613 145.07 173.661 145.138C173.709 145.206 173.783 145.272 173.883 145.336C173.983 145.396 174.135 145.476 174.339 145.576L174.465 145.648C174.697 145.776 174.877 145.888 175.005 145.984C175.137 146.076 175.247 146.194 175.335 146.338C175.423 146.482 175.467 146.656 175.467 146.86C175.467 147.224 175.343 147.514 175.095 147.73C174.851 147.942 174.525 148.048 174.117 148.048Z" fill="#B1B4C5"/>
</g>
<g id="Group 19 Copy" clip-path="url(#clip2_0_784)">
<g id="Group 15_7">
<rect id="Rectangle_7" x="115.753" y="172.439" width="85" height="2.66667" rx="1.33333" transform="rotate(40 115.753 172.439)" fill="#B1B4C5"/>
<g id="Group 12_7">
<g id="Group 14_7">
<path id="Rectangle Copy 2_7" fill-rule="evenodd" clip-rule="evenodd" d="M178.936 218.523C179.617 218.458 180.218 218.968 180.266 219.65L180.828 227.719C180.874 228.377 180.386 228.952 179.729 229.015C179.048 229.08 178.447 228.571 178.399 227.888L177.837 219.82C177.791 219.161 178.278 218.586 178.936 218.523Z" fill="#B1B4C5"/>
<path id="Rectangle Copy 3_7" fill-rule="evenodd" clip-rule="evenodd" d="M170.395 228.702C170.342 228.044 170.824 227.464 171.481 227.395L179.524 226.548C180.205 226.476 180.811 226.979 180.865 227.661C180.917 228.32 180.436 228.9 179.779 228.969L171.736 229.816C171.055 229.888 170.449 229.384 170.395 228.702Z" fill="#B1B4C5"/>
</g>
</g>
</g>
<path id="BEATS_2" d="M148.245 193.397C148.001 193.688 147.719 193.83 147.401 193.824C147.088 193.818 146.783 193.69 146.486 193.44L145.456 192.576C145.441 192.563 145.431 192.547 145.426 192.528C145.427 192.508 145.434 192.49 145.447 192.475L148.054 189.368C148.067 189.352 148.082 189.344 148.099 189.343C148.122 189.341 148.14 189.346 148.156 189.359L149.116 190.165C149.444 190.44 149.637 190.727 149.694 191.026C149.754 191.321 149.659 191.618 149.41 191.915C149.156 192.219 148.854 192.339 148.505 192.275C148.482 192.272 148.472 192.28 148.477 192.299C148.618 192.679 148.541 193.045 148.245 193.397ZM148.305 190.432C148.29 190.419 148.276 190.42 148.263 190.436L147.657 191.157C147.644 191.172 147.646 191.187 147.661 191.199L148.01 191.492C148.133 191.595 148.258 191.643 148.385 191.634C148.512 191.626 148.625 191.562 148.726 191.443C148.828 191.32 148.873 191.196 148.859 191.069C148.848 190.945 148.78 190.83 148.654 190.725L148.305 190.432ZM146.929 192.856C147.051 192.959 147.176 193.004 147.302 192.99C147.434 192.975 147.556 192.902 147.666 192.77C147.777 192.639 147.828 192.506 147.819 192.374C147.816 192.241 147.753 192.123 147.63 192.02L147.244 191.696C147.229 191.683 147.215 191.684 147.202 191.699L146.539 192.49C146.526 192.505 146.527 192.519 146.542 192.532L146.929 192.856ZM152.138 193.554C152.125 193.57 152.108 193.578 152.085 193.58C152.068 193.582 152.052 193.576 152.037 193.563L150.805 192.53C150.79 192.517 150.776 192.518 150.763 192.533L150.161 193.25C150.148 193.266 150.15 193.28 150.165 193.293L150.932 193.937C150.948 193.95 150.955 193.966 150.954 193.986C150.958 194.005 150.954 194.023 150.941 194.038L150.567 194.484C150.554 194.499 150.537 194.508 150.514 194.51C150.497 194.511 150.481 194.506 150.466 194.493L149.698 193.849C149.683 193.836 149.669 193.837 149.656 193.852L149.035 194.592C149.022 194.608 149.023 194.622 149.039 194.635L150.271 195.668C150.286 195.681 150.293 195.698 150.292 195.718C150.296 195.737 150.292 195.754 150.279 195.77L149.905 196.216C149.892 196.231 149.875 196.24 149.852 196.242C149.835 196.243 149.819 196.237 149.804 196.224L147.956 194.674C147.941 194.661 147.931 194.645 147.926 194.626C147.927 194.606 147.934 194.588 147.947 194.573L150.554 191.466C150.567 191.45 150.582 191.442 150.599 191.44C150.622 191.438 150.641 191.444 150.656 191.457L152.504 193.007C152.519 193.02 152.526 193.036 152.525 193.056C152.529 193.076 152.525 193.093 152.512 193.109L152.138 193.554ZM151.985 198.055C151.951 198.026 151.943 197.993 151.959 197.955L152.232 197.416C152.239 197.401 152.236 197.388 152.224 197.378L151.364 196.657C151.352 196.646 151.339 196.646 151.326 196.656L150.842 197.018C150.807 197.041 150.775 197.039 150.744 197.013L150.188 196.547C150.148 196.513 150.149 196.481 150.192 196.448L153.63 194.031C153.665 194.008 153.7 194.011 153.733 194.039L154.4 194.598C154.433 194.626 154.442 194.66 154.426 194.698L152.642 198.504L152.631 198.526C152.608 198.554 152.579 198.554 152.546 198.525L151.985 198.055ZM151.909 196.213C151.898 196.22 151.893 196.229 151.894 196.24C151.898 196.248 151.903 196.255 151.909 196.26L152.516 196.769C152.522 196.774 152.529 196.778 152.538 196.78C152.549 196.779 152.557 196.772 152.562 196.761L153.363 195.162C153.37 195.147 153.371 195.137 153.365 195.132C153.359 195.127 153.349 195.129 153.335 195.139L151.909 196.213ZM157.3 197.031C157.315 197.044 157.322 197.061 157.321 197.081C157.325 197.1 157.321 197.118 157.308 197.133L156.931 197.583C156.918 197.599 156.9 197.607 156.877 197.609C156.861 197.611 156.844 197.605 156.829 197.592L156.13 197.006C156.115 196.993 156.101 196.994 156.088 197.01L153.925 199.588C153.912 199.603 153.894 199.612 153.871 199.614C153.855 199.616 153.838 199.61 153.823 199.597L153.285 199.146C153.27 199.133 153.26 199.117 153.256 199.097C153.257 199.077 153.264 199.06 153.276 199.044L155.44 196.466C155.453 196.451 155.452 196.436 155.436 196.424L154.761 195.857C154.745 195.844 154.736 195.828 154.731 195.808C154.732 195.788 154.739 195.771 154.752 195.755L155.13 195.305C155.143 195.289 155.158 195.281 155.174 195.28C155.197 195.278 155.216 195.283 155.231 195.296L157.3 197.031ZM155.941 201.437C155.729 201.259 155.575 201.067 155.477 200.86C155.382 200.649 155.347 200.439 155.371 200.23C155.401 200.02 155.49 199.826 155.64 199.649L155.74 199.529C155.753 199.514 155.768 199.505 155.784 199.504C155.807 199.502 155.826 199.507 155.841 199.52L156.37 199.964C156.385 199.977 156.392 199.993 156.391 200.013C156.396 200.033 156.392 200.05 156.379 200.065L156.305 200.153C156.215 200.26 156.179 200.384 156.197 200.524C156.218 200.661 156.296 200.787 156.43 200.9C156.55 201 156.666 201.045 156.779 201.035C156.894 201.028 156.992 200.977 157.072 200.882C157.131 200.811 157.161 200.735 157.163 200.653C157.166 200.567 157.15 200.472 157.112 200.367C157.08 200.262 157.021 200.108 156.935 199.906C156.829 199.66 156.751 199.448 156.701 199.27C156.651 199.093 156.638 198.907 156.661 198.712C156.683 198.517 156.769 198.33 156.918 198.153C157.067 197.975 157.239 197.855 157.432 197.793C157.631 197.73 157.837 197.727 158.049 197.785C158.264 197.84 158.469 197.95 158.665 198.115C158.871 198.287 159.02 198.48 159.112 198.693C159.207 198.904 159.24 199.116 159.211 199.332C159.181 199.548 159.089 199.747 158.935 199.931L158.858 200.023C158.845 200.038 158.827 200.047 158.805 200.049C158.788 200.05 158.772 200.045 158.756 200.032L158.228 199.588C158.213 199.575 158.203 199.559 158.198 199.54C158.199 199.52 158.206 199.502 158.219 199.487L158.288 199.404C158.381 199.294 158.42 199.17 158.405 199.032C158.39 198.894 158.317 198.77 158.185 198.659C158.075 198.567 157.963 198.523 157.85 198.527C157.742 198.531 157.646 198.583 157.561 198.684C157.502 198.755 157.469 198.831 157.462 198.914C157.455 198.997 157.469 199.095 157.505 199.209C157.543 199.319 157.608 199.478 157.7 199.686L157.75 199.822C157.845 200.069 157.911 200.27 157.948 200.426C157.99 200.582 157.998 200.743 157.973 200.91C157.948 201.076 157.87 201.238 157.739 201.394C157.505 201.673 157.223 201.816 156.894 201.822C156.571 201.827 156.253 201.699 155.941 201.437Z" fill="#B1B4C5"/>
</g>
<g id="Group 19 Copy 4" clip-path="url(#clip3_0_784)">
<g id="Group 15_8">
<rect id="Rectangle_8" x="153.896" y="228.114" width="85" height="2.66667" rx="1.33333" transform="rotate(-40 153.896 228.114)" fill="#B1B4C5"/>
<g id="Group 12_8">
<g id="Group 14_8">
<path id="Rectangle Copy 2_8" fill-rule="evenodd" clip-rule="evenodd" d="M210.251 173.894C210.306 173.212 210.912 172.709 211.592 172.78L219.636 173.627C220.292 173.697 220.774 174.277 220.722 174.935C220.667 175.617 220.061 176.12 219.381 176.049L211.337 175.201C210.681 175.132 210.199 174.552 210.251 173.894Z" fill="#B1B4C5"/>
<path id="Rectangle Copy 3_8" fill-rule="evenodd" clip-rule="evenodd" d="M218.792 184.072C218.135 184.01 217.648 183.435 217.693 182.776L218.256 174.708C218.303 174.025 218.904 173.516 219.586 173.581C220.243 173.643 220.73 174.218 220.684 174.877L220.122 182.945C220.074 183.628 219.474 184.137 218.792 184.072Z" fill="#B1B4C5"/>
</g>
</g>
</g>
<path id="BEATS_3" d="M180.177 199.755C180.422 200.047 180.513 200.348 180.452 200.661C180.391 200.968 180.212 201.246 179.914 201.496L178.885 202.36C178.87 202.372 178.852 202.379 178.832 202.38C178.812 202.376 178.796 202.366 178.783 202.351L176.176 199.244C176.163 199.228 176.158 199.212 176.159 199.195C176.161 199.173 176.17 199.155 176.185 199.142L177.146 198.336C177.474 198.061 177.79 197.921 178.094 197.916C178.396 197.909 178.671 198.054 178.92 198.351C179.175 198.654 179.241 198.972 179.118 199.305C179.11 199.327 179.117 199.338 179.137 199.336C179.535 199.263 179.882 199.403 180.177 199.755ZM177.268 199.181C177.252 199.194 177.251 199.208 177.264 199.224L177.87 199.945C177.882 199.961 177.896 199.962 177.912 199.949L178.261 199.656C178.384 199.553 178.452 199.438 178.466 199.312C178.48 199.185 178.437 199.062 178.336 198.943C178.233 198.82 178.118 198.755 177.991 198.747C177.867 198.736 177.743 198.783 177.617 198.888L177.268 199.181ZM179.416 200.958C179.539 200.855 179.604 200.74 179.613 200.613C179.621 200.481 179.57 200.348 179.46 200.217C179.349 200.085 179.228 200.012 179.096 199.997C178.964 199.977 178.837 200.019 178.714 200.122L178.328 200.445C178.313 200.458 178.312 200.472 178.325 200.488L178.988 201.278C179.001 201.294 179.015 201.295 179.03 201.282L179.416 200.958ZM181.009 195.949C181.021 195.964 181.027 195.983 181.025 196.005C181.023 196.022 181.015 196.037 181 196.05L179.768 197.084C179.753 197.097 179.751 197.111 179.764 197.126L180.366 197.843C180.379 197.858 180.393 197.859 180.408 197.847L181.176 197.203C181.191 197.19 181.208 197.186 181.228 197.19C181.248 197.189 181.264 197.196 181.277 197.211L181.651 197.657C181.664 197.673 181.669 197.692 181.668 197.714C181.666 197.731 181.658 197.746 181.642 197.759L180.875 198.403C180.859 198.416 180.858 198.43 180.871 198.445L181.492 199.185C181.505 199.2 181.519 199.202 181.534 199.189L182.766 198.155C182.781 198.142 182.799 198.138 182.818 198.143C182.838 198.142 182.855 198.149 182.867 198.164L183.242 198.61C183.254 198.625 183.26 198.644 183.258 198.667C183.256 198.684 183.248 198.698 183.233 198.711L181.385 200.262C181.37 200.275 181.352 200.282 181.332 200.283C181.313 200.278 181.296 200.268 181.284 200.253L178.676 197.146C178.664 197.13 178.658 197.114 178.659 197.097C178.661 197.075 178.67 197.057 178.685 197.044L180.533 195.494C180.548 195.481 180.566 195.477 180.585 195.481C180.605 195.48 180.622 195.487 180.634 195.503L181.009 195.949ZM185.414 196.881C185.38 196.909 185.346 196.912 185.311 196.889L184.827 196.527C184.814 196.518 184.801 196.518 184.789 196.528L183.929 197.249C183.917 197.26 183.915 197.272 183.922 197.287L184.194 197.826C184.211 197.865 184.204 197.897 184.173 197.922L183.617 198.389C183.577 198.422 183.545 198.415 183.521 198.368L181.737 194.562C181.72 194.524 181.729 194.49 181.763 194.462L182.429 193.903C182.463 193.875 182.497 193.872 182.532 193.895L185.97 196.312L185.99 196.327C186.014 196.354 186.008 196.382 185.975 196.411L185.414 196.881ZM183.587 196.636C183.592 196.648 183.6 196.654 183.611 196.655C183.62 196.653 183.627 196.649 183.633 196.644L184.24 196.135C184.246 196.13 184.251 196.123 184.254 196.115C184.255 196.104 184.25 196.095 184.24 196.088L182.804 195.022C182.791 195.012 182.781 195.01 182.775 195.015C182.769 195.02 182.769 195.03 182.776 195.045L183.587 196.636ZM185.329 191.47C185.344 191.457 185.362 191.453 185.381 191.457C185.401 191.456 185.418 191.463 185.43 191.478L185.808 191.929C185.821 191.944 185.827 191.963 185.825 191.986C185.823 192.003 185.815 192.017 185.8 192.03L185.101 192.617C185.086 192.629 185.084 192.643 185.097 192.659L187.261 195.237C187.274 195.253 187.279 195.272 187.277 195.294C187.276 195.311 187.267 195.326 187.252 195.339L186.714 195.79C186.699 195.803 186.681 195.81 186.661 195.811C186.642 195.806 186.626 195.796 186.613 195.781L184.449 193.203C184.436 193.187 184.422 193.186 184.407 193.199L183.731 193.766C183.716 193.779 183.698 193.786 183.678 193.787C183.659 193.782 183.643 193.772 183.63 193.757L183.252 193.307C183.239 193.291 183.233 193.275 183.235 193.258C183.237 193.236 183.245 193.218 183.261 193.205L185.329 191.47ZM189.431 193.573C189.22 193.75 189.004 193.869 188.783 193.929C188.559 193.986 188.346 193.985 188.144 193.924C187.943 193.858 187.767 193.737 187.618 193.559L187.518 193.439C187.505 193.424 187.499 193.408 187.501 193.391C187.503 193.369 187.511 193.351 187.527 193.338L188.055 192.894C188.071 192.882 188.088 192.877 188.108 192.882C188.128 192.881 188.144 192.888 188.157 192.903L188.23 192.991C188.32 193.098 188.436 193.155 188.577 193.162C188.716 193.165 188.853 193.11 188.988 192.997C189.107 192.897 189.172 192.791 189.182 192.678C189.195 192.563 189.161 192.457 189.081 192.362C189.022 192.292 188.952 192.249 188.871 192.233C188.788 192.215 188.691 192.215 188.582 192.234C188.473 192.247 188.311 192.278 188.096 192.327C187.835 192.39 187.613 192.43 187.43 192.448C187.247 192.466 187.061 192.447 186.873 192.391C186.685 192.334 186.516 192.217 186.367 192.04C186.218 191.862 186.129 191.673 186.102 191.471C186.074 191.265 186.108 191.062 186.202 190.863C186.293 190.661 186.437 190.477 186.633 190.313C186.838 190.14 187.054 190.027 187.28 189.973C187.504 189.916 187.719 189.921 187.926 189.987C188.134 190.054 188.314 190.179 188.469 190.362L188.546 190.454C188.559 190.47 188.564 190.489 188.562 190.511C188.561 190.528 188.552 190.543 188.537 190.556L188.008 190.999C187.993 191.012 187.975 191.019 187.955 191.02C187.936 191.016 187.92 191.006 187.907 190.991L187.837 190.908C187.745 190.797 187.629 190.738 187.491 190.728C187.353 190.719 187.218 190.77 187.086 190.88C186.976 190.973 186.913 191.075 186.897 191.188C186.882 191.294 186.917 191.398 187.002 191.499C187.061 191.57 187.131 191.615 187.211 191.637C187.292 191.658 187.391 191.661 187.509 191.646C187.624 191.627 187.792 191.591 188.012 191.536L188.155 191.511C188.415 191.459 188.625 191.43 188.785 191.421C188.945 191.406 189.105 191.426 189.265 191.48C189.425 191.534 189.571 191.639 189.702 191.795C189.936 192.074 190.027 192.376 189.976 192.7C189.925 193.02 189.744 193.31 189.431 193.573Z" fill="#B1B4C5"/>
</g>
<g id="Group 19 Copy 2" clip-path="url(#clip4_0_784)">
<g id="Group 15_9">
<rect id="Rectangle_9" x="213.378" y="206.126" width="85" height="2.66667" rx="1.33333" transform="rotate(-110 213.378 206.126)" fill="#B1B4C5"/>
<g id="Group 12_9">
<g id="Group 14_9">
<path id="Rectangle Copy 2_9" fill-rule="evenodd" clip-rule="evenodd" d="M181.703 134.624C181.08 134.34 180.814 133.598 181.115 132.983L184.662 125.715C184.951 125.122 185.661 124.867 186.262 125.142C186.884 125.426 187.15 126.168 186.85 126.783L183.303 134.051C183.013 134.644 182.303 134.899 181.703 134.624Z" fill="#B1B4C5"/>
<path id="Rectangle Copy 3_9" fill-rule="evenodd" clip-rule="evenodd" d="M194.189 130.08C193.905 130.676 193.198 130.938 192.595 130.669L185.205 127.381C184.58 127.103 184.307 126.364 184.601 125.746C184.885 125.15 185.592 124.888 186.195 125.157L193.584 128.445C194.21 128.723 194.483 129.462 194.189 130.08Z" fill="#B1B4C5"/>
</g>
</g>
</g>
<path id="BEATS_4" d="M195.718 171.73C196.076 171.6 196.39 171.617 196.663 171.782C196.931 171.944 197.131 172.208 197.264 172.572L197.723 173.835C197.73 173.854 197.731 173.873 197.725 173.892C197.714 173.909 197.699 173.921 197.68 173.927L193.869 175.315C193.85 175.321 193.833 175.321 193.818 175.314C193.797 175.305 193.784 175.29 193.777 175.272L193.348 174.093C193.201 173.691 193.178 173.346 193.278 173.059C193.374 172.773 193.604 172.563 193.969 172.431C194.341 172.295 194.662 172.342 194.933 172.571C194.951 172.586 194.963 172.584 194.969 172.565C195.036 172.165 195.286 171.887 195.718 171.73ZM194.184 174.268C194.191 174.287 194.204 174.293 194.222 174.286L195.108 173.964C195.126 173.957 195.132 173.944 195.125 173.925L194.97 173.497C194.915 173.346 194.83 173.243 194.716 173.187C194.602 173.13 194.472 173.129 194.325 173.182C194.175 173.237 194.074 173.322 194.023 173.439C193.97 173.552 193.972 173.685 194.028 173.839L194.184 174.268ZM196.588 172.856C196.533 172.706 196.448 172.605 196.331 172.554C196.21 172.5 196.068 172.503 195.906 172.562C195.745 172.621 195.634 172.71 195.576 172.829C195.512 172.946 195.507 173.079 195.562 173.23L195.734 173.703C195.741 173.722 195.754 173.728 195.773 173.721L196.743 173.368C196.761 173.362 196.767 173.349 196.761 173.33L196.588 172.856ZM192.425 169.647C192.444 169.64 192.464 169.641 192.484 169.651C192.5 169.658 192.511 169.671 192.518 169.69L193.068 171.201C193.075 171.22 193.087 171.226 193.106 171.219L193.986 170.899C194.004 170.892 194.01 170.879 194.004 170.86L193.661 169.919C193.654 169.9 193.656 169.882 193.667 169.865C193.673 169.846 193.685 169.833 193.704 169.826L194.251 169.627C194.27 169.621 194.289 169.622 194.31 169.631C194.325 169.639 194.336 169.652 194.343 169.67L194.686 170.612C194.693 170.631 194.705 170.637 194.724 170.63L195.632 170.3C195.651 170.293 195.657 170.28 195.65 170.261L195.1 168.75C195.093 168.731 195.095 168.713 195.106 168.697C195.112 168.678 195.124 168.665 195.143 168.658L195.69 168.459C195.709 168.452 195.728 168.453 195.749 168.463C195.764 168.47 195.775 168.483 195.782 168.502L196.607 170.768C196.614 170.787 196.614 170.806 196.609 170.825C196.598 170.842 196.583 170.854 196.564 170.861L192.753 172.248C192.734 172.255 192.717 172.254 192.701 172.247C192.681 172.238 192.667 172.224 192.66 172.205L191.835 169.938C191.829 169.919 191.831 169.902 191.842 169.885C191.847 169.866 191.86 169.853 191.879 169.846L192.425 169.647ZM194.808 165.826C194.823 165.867 194.814 165.901 194.781 165.926L194.275 166.256C194.262 166.266 194.258 166.278 194.263 166.293L194.647 167.347C194.652 167.362 194.663 167.369 194.68 167.367L195.279 167.296C195.321 167.293 195.349 167.311 195.362 167.348L195.611 168.031C195.629 168.08 195.611 168.107 195.558 168.114L191.372 168.488C191.33 168.491 191.301 168.471 191.286 168.43L190.989 167.612C190.974 167.571 190.983 167.538 191.017 167.513L194.464 165.109L194.485 165.095C194.518 165.082 194.543 165.097 194.558 165.138L194.808 165.826ZM193.953 167.459C193.966 167.459 193.975 167.453 193.979 167.443C193.98 167.434 193.98 167.426 193.977 167.419L193.706 166.674C193.703 166.667 193.699 166.66 193.692 166.654C193.682 166.649 193.672 166.651 193.662 166.658L192.168 167.643C192.155 167.652 192.149 167.66 192.152 167.668C192.155 167.675 192.164 167.678 192.181 167.676L193.953 167.459ZM189.694 164.055C189.687 164.036 189.689 164.018 189.7 164.002C189.706 163.983 189.718 163.97 189.737 163.963L190.29 163.762C190.309 163.755 190.328 163.756 190.349 163.766C190.364 163.773 190.375 163.786 190.382 163.805L190.694 164.662C190.701 164.68 190.714 164.686 190.732 164.68L193.895 163.528C193.914 163.522 193.934 163.523 193.954 163.532C193.97 163.54 193.981 163.553 193.988 163.571L194.228 164.231C194.235 164.25 194.235 164.269 194.229 164.288C194.218 164.305 194.204 164.316 194.185 164.323L191.022 165.475C191.003 165.481 190.997 165.494 191.004 165.513L191.305 166.342C191.312 166.361 191.313 166.38 191.307 166.399C191.296 166.415 191.281 166.427 191.262 166.434L190.71 166.635C190.691 166.642 190.674 166.642 190.659 166.635C190.638 166.625 190.624 166.611 190.618 166.592L189.694 164.055ZM193.074 160.919C193.168 161.179 193.206 161.423 193.187 161.651C193.164 161.881 193.089 162.08 192.964 162.249C192.833 162.416 192.658 162.539 192.44 162.618L192.294 162.672C192.275 162.679 192.258 162.679 192.243 162.671C192.222 162.662 192.208 162.648 192.202 162.629L191.966 161.98C191.959 161.962 191.961 161.944 191.972 161.927C191.978 161.908 191.99 161.895 192.009 161.888L192.116 161.849C192.247 161.801 192.34 161.712 192.395 161.581C192.446 161.452 192.441 161.305 192.381 161.14C192.328 160.993 192.25 160.896 192.147 160.848C192.043 160.796 191.933 160.792 191.817 160.834C191.73 160.866 191.666 160.917 191.623 160.988C191.577 161.06 191.544 161.15 191.525 161.26C191.5 161.367 191.474 161.529 191.447 161.748C191.416 162.014 191.378 162.237 191.332 162.415C191.286 162.594 191.205 162.762 191.088 162.919C190.971 163.077 190.803 163.195 190.585 163.275C190.367 163.354 190.159 163.372 189.96 163.33C189.756 163.285 189.577 163.184 189.422 163.027C189.264 162.872 189.141 162.674 189.053 162.434C188.961 162.182 188.929 161.941 188.955 161.71C188.978 161.48 189.056 161.279 189.19 161.107C189.323 160.935 189.502 160.808 189.728 160.726L189.84 160.685C189.859 160.678 189.879 160.68 189.899 160.689C189.915 160.696 189.926 160.709 189.933 160.728L190.169 161.377C190.176 161.395 190.176 161.414 190.17 161.433C190.159 161.45 190.144 161.462 190.126 161.469L190.024 161.506C189.889 161.555 189.793 161.643 189.737 161.77C189.681 161.897 189.683 162.041 189.741 162.203C189.791 162.338 189.865 162.432 189.966 162.485C190.061 162.535 190.17 162.538 190.294 162.493C190.381 162.462 190.448 162.412 190.495 162.343C190.542 162.275 190.579 162.183 190.605 162.067C190.627 161.952 190.651 161.782 190.675 161.556L190.699 161.413C190.74 161.152 190.784 160.944 190.83 160.791C190.872 160.635 190.945 160.492 191.05 160.36C191.155 160.228 191.304 160.127 191.495 160.057C191.838 159.933 192.152 159.95 192.44 160.109C192.723 160.266 192.934 160.536 193.074 160.919Z" fill="#B1B4C5"/>
</g>
<g id="Group 19 Copy 3" clip-path="url(#clip5_0_784)">
<g id="Group 15_10">
<rect id="Rectangle_10" x="152.246" y="124.734" width="85" height="2.66667" rx="1.33333" transform="rotate(110 152.246 124.734)" fill="#B1B4C5"/>
<g id="Group 12_10">
<g id="Group 14_10">
<path id="Rectangle Copy 2_10" fill-rule="evenodd" clip-rule="evenodd" d="M130.55 199.868C130.845 200.486 130.571 201.224 129.946 201.503L122.557 204.791C121.954 205.059 121.246 204.798 120.963 204.201C120.669 203.583 120.942 202.845 121.567 202.566L128.956 199.278C129.56 199.01 130.267 199.271 130.55 199.868Z" fill="#B1B4C5"/>
<path id="Rectangle Copy 3_10" fill-rule="evenodd" clip-rule="evenodd" d="M118.065 195.323C118.665 195.049 119.375 195.303 119.664 195.897L123.211 203.165C123.512 203.78 123.246 204.522 122.623 204.806C122.023 205.08 121.313 204.826 121.024 204.233L117.476 196.964C117.176 196.349 117.442 195.608 118.065 195.323Z" fill="#B1B4C5"/>
</g>
</g>
</g>
<path id="BEATS_5" d="M143.665 162.434C143.308 162.304 143.078 162.089 142.974 161.787C142.874 161.491 142.89 161.16 143.022 160.796L143.482 159.533C143.489 159.514 143.501 159.499 143.518 159.488C143.537 159.483 143.556 159.483 143.574 159.49L147.386 160.877C147.405 160.884 147.418 160.895 147.425 160.91C147.434 160.931 147.436 160.951 147.429 160.969L147 162.148C146.854 162.55 146.65 162.829 146.389 162.985C146.131 163.143 145.82 163.155 145.456 163.022C145.084 162.887 144.867 162.644 144.807 162.295C144.803 162.272 144.792 162.266 144.776 162.277C144.467 162.539 144.097 162.592 143.665 162.434ZM146.472 161.477C146.478 161.458 146.473 161.445 146.454 161.438L145.569 161.116C145.55 161.109 145.537 161.115 145.53 161.134L145.374 161.562C145.319 161.713 145.318 161.846 145.369 161.963C145.42 162.079 145.519 162.164 145.666 162.218C145.816 162.272 145.948 162.272 146.062 162.215C146.175 162.163 146.26 162.059 146.316 161.905L146.472 161.477ZM143.723 161.012C143.668 161.163 143.669 161.295 143.725 161.409C143.784 161.528 143.894 161.618 144.056 161.676C144.217 161.735 144.359 161.738 144.481 161.684C144.605 161.636 144.694 161.536 144.749 161.386L144.921 160.912C144.928 160.893 144.922 160.881 144.903 160.874L143.933 160.521C143.915 160.514 143.902 160.52 143.895 160.539L143.723 161.012ZM144.848 166.147C144.83 166.14 144.815 166.126 144.806 166.106C144.799 166.09 144.799 166.073 144.805 166.054L145.355 164.543C145.362 164.525 145.356 164.512 145.337 164.505L144.458 164.185C144.439 164.178 144.426 164.184 144.419 164.203L144.077 165.144C144.07 165.163 144.057 165.175 144.038 165.181C144.021 165.192 144.003 165.194 143.984 165.187L143.438 164.988C143.419 164.982 143.405 164.968 143.395 164.947C143.388 164.932 143.388 164.915 143.395 164.896L143.737 163.955C143.744 163.936 143.738 163.923 143.719 163.916L142.812 163.586C142.793 163.579 142.78 163.585 142.773 163.604L142.223 165.115C142.216 165.133 142.203 165.146 142.184 165.152C142.167 165.162 142.15 165.164 142.131 165.158L141.584 164.959C141.565 164.952 141.551 164.938 141.541 164.918C141.534 164.902 141.534 164.885 141.541 164.866L142.366 162.6C142.373 162.581 142.385 162.566 142.401 162.555C142.42 162.549 142.439 162.55 142.458 162.557L146.27 163.944C146.288 163.951 146.301 163.962 146.309 163.977C146.318 163.998 146.319 164.017 146.313 164.036L145.488 166.303C145.481 166.322 145.468 166.334 145.449 166.34C145.432 166.351 145.414 166.353 145.395 166.346L144.848 166.147ZM140.567 167.542C140.582 167.501 140.611 167.481 140.652 167.484L141.252 167.555C141.268 167.557 141.279 167.55 141.285 167.535L141.669 166.481C141.674 166.466 141.67 166.453 141.656 166.444L141.151 166.113C141.117 166.088 141.107 166.057 141.121 166.02L141.369 165.337C141.387 165.289 141.419 165.279 141.463 165.308L144.911 167.712C144.944 167.737 144.954 167.77 144.939 167.811L144.641 168.629C144.626 168.67 144.598 168.69 144.556 168.687L140.37 168.313L140.345 168.31C140.311 168.298 140.302 168.271 140.317 168.23L140.567 167.542ZM142.272 166.841C142.262 166.833 142.252 166.831 142.242 166.836C142.235 166.842 142.23 166.849 142.228 166.857L141.957 167.601C141.954 167.608 141.953 167.616 141.954 167.625C141.959 167.636 141.968 167.641 141.98 167.641L143.757 167.847C143.773 167.849 143.783 167.846 143.786 167.839C143.788 167.831 143.783 167.823 143.769 167.814L142.272 166.841ZM143.346 172.186C143.339 172.205 143.327 172.217 143.307 172.223C143.291 172.234 143.273 172.236 143.254 172.229L142.702 172.028C142.683 172.021 142.669 172.007 142.659 171.987C142.652 171.972 142.652 171.954 142.658 171.936L142.97 171.079C142.977 171.06 142.971 171.047 142.952 171.04L139.789 169.889C139.771 169.882 139.756 169.868 139.747 169.848C139.74 169.833 139.74 169.815 139.746 169.797L139.987 169.137C139.993 169.118 140.005 169.103 140.022 169.092C140.041 169.087 140.06 169.087 140.079 169.094L143.242 170.245C143.261 170.252 143.273 170.246 143.28 170.227L143.582 169.398C143.589 169.38 143.601 169.365 143.617 169.354C143.636 169.348 143.655 169.349 143.674 169.355L144.227 169.557C144.246 169.563 144.259 169.574 144.266 169.59C144.275 169.61 144.277 169.63 144.27 169.649L143.346 172.186ZM138.742 172.416C138.836 172.156 138.964 171.945 139.126 171.783C139.291 171.622 139.476 171.516 139.681 171.468C139.888 171.424 140.101 171.442 140.319 171.521L140.466 171.575C140.485 171.581 140.498 171.592 140.505 171.608C140.514 171.628 140.516 171.648 140.509 171.667L140.273 172.315C140.266 172.334 140.253 172.346 140.234 172.352C140.217 172.363 140.199 172.365 140.181 172.358L140.073 172.319C139.942 172.271 139.813 172.28 139.687 172.345C139.565 172.411 139.474 172.527 139.414 172.692C139.361 172.839 139.358 172.963 139.406 173.066C139.452 173.172 139.534 173.247 139.65 173.289C139.737 173.32 139.819 173.323 139.897 173.296C139.978 173.27 140.062 173.222 140.147 173.151C140.235 173.085 140.36 172.977 140.521 172.827C140.716 172.642 140.888 172.497 141.038 172.389C141.187 172.282 141.358 172.206 141.549 172.16C141.74 172.115 141.944 172.132 142.162 172.211C142.38 172.291 142.552 172.41 142.676 172.571C142.803 172.736 142.876 172.929 142.894 173.148C142.916 173.369 142.883 173.599 142.795 173.84C142.704 174.092 142.574 174.298 142.405 174.458C142.24 174.619 142.051 174.722 141.838 174.769C141.626 174.815 141.406 174.797 141.181 174.715L141.068 174.673C141.049 174.667 141.035 174.653 141.026 174.632C141.018 174.617 141.018 174.6 141.025 174.581L141.261 173.933C141.268 173.914 141.28 173.899 141.297 173.888C141.316 173.882 141.335 173.883 141.353 173.89L141.455 173.927C141.59 173.976 141.72 173.97 141.845 173.909C141.969 173.848 142.061 173.736 142.119 173.575C142.169 173.439 142.172 173.319 142.129 173.214C142.089 173.115 142.007 173.042 141.883 172.997C141.796 172.965 141.713 172.961 141.633 172.983C141.552 173.004 141.465 173.051 141.371 173.123C141.28 173.197 141.153 173.312 140.989 173.47L140.878 173.564C140.679 173.738 140.512 173.869 140.378 173.956C140.246 174.049 140.098 174.112 139.932 174.145C139.767 174.179 139.588 174.16 139.397 174.091C139.055 173.966 138.825 173.75 138.706 173.444C138.591 173.142 138.603 172.799 138.742 172.416Z" fill="#B1B4C5"/>
</g>
</g>
<path id="BEATS_6" d="M257.599 61.866C257.599 62.5627 257.372 63.0943 256.917 63.461C256.47 63.8203 255.89 64 255.179 64H252.715C252.678 64 252.645 63.989 252.616 63.967C252.594 63.9377 252.583 63.9047 252.583 63.868V56.432C252.583 56.3953 252.594 56.366 252.616 56.344C252.645 56.3147 252.678 56.3 252.715 56.3H255.014C255.799 56.3 256.407 56.476 256.84 56.828C257.273 57.1727 257.489 57.7007 257.489 58.412C257.489 59.138 257.207 59.6623 256.642 59.985C256.605 60.007 256.602 60.029 256.631 60.051C257.276 60.4177 257.599 61.0227 257.599 61.866ZM254.189 57.631C254.152 57.631 254.134 57.6493 254.134 57.686V59.413C254.134 59.4497 254.152 59.468 254.189 59.468H255.025C255.318 59.468 255.549 59.3873 255.718 59.226C255.887 59.0647 255.971 58.841 255.971 58.555C255.971 58.2617 255.887 58.0343 255.718 57.873C255.557 57.7117 255.326 57.631 255.025 57.631H254.189ZM255.113 62.658C255.406 62.658 255.634 62.5737 255.795 62.405C255.964 62.229 256.048 61.9833 256.048 61.668C256.048 61.3527 255.964 61.107 255.795 60.931C255.634 60.7477 255.406 60.656 255.113 60.656H254.189C254.152 60.656 254.134 60.6743 254.134 60.711V62.603C254.134 62.6397 254.152 62.658 254.189 62.658H255.113ZM263.252 57.499C263.252 57.5357 263.238 57.5687 263.208 57.598C263.186 57.62 263.157 57.631 263.12 57.631H260.172C260.136 57.631 260.117 57.6493 260.117 57.686V59.402C260.117 59.4387 260.136 59.457 260.172 59.457H262.009C262.046 59.457 262.075 59.4717 262.097 59.501C262.127 59.523 262.141 59.5523 262.141 59.589V60.656C262.141 60.6927 262.127 60.7257 262.097 60.755C262.075 60.777 262.046 60.788 262.009 60.788H260.172C260.136 60.788 260.117 60.8063 260.117 60.843V62.614C260.117 62.6507 260.136 62.669 260.172 62.669H263.12C263.157 62.669 263.186 62.6837 263.208 62.713C263.238 62.735 263.252 62.7643 263.252 62.801V63.868C263.252 63.9047 263.238 63.9377 263.208 63.967C263.186 63.989 263.157 64 263.12 64H258.698C258.662 64 258.629 63.989 258.599 63.967C258.577 63.9377 258.566 63.9047 258.566 63.868V56.432C258.566 56.3953 258.577 56.366 258.599 56.344C258.629 56.3147 258.662 56.3 258.698 56.3H263.12C263.157 56.3 263.186 56.3147 263.208 56.344C263.238 56.366 263.252 56.3953 263.252 56.432V57.499ZM268.341 64C268.26 64 268.209 63.9633 268.187 63.89L267.934 62.812C267.926 62.7827 267.908 62.768 267.879 62.768H265.822C265.792 62.768 265.774 62.7827 265.767 62.812L265.514 63.89C265.492 63.9633 265.444 64 265.371 64H264.04C263.944 64 263.908 63.9523 263.93 63.857L265.91 56.41C265.932 56.3367 265.983 56.3 266.064 56.3H267.659C267.739 56.3 267.791 56.3367 267.813 56.41L269.793 63.857L269.804 63.901C269.804 63.967 269.763 64 269.683 64H268.341ZM266.064 61.503C266.056 61.525 266.06 61.5433 266.075 61.558C266.089 61.5653 266.104 61.569 266.119 61.569H267.571C267.585 61.569 267.6 61.5653 267.615 61.558C267.629 61.5433 267.633 61.525 267.626 61.503L266.867 58.313C266.859 58.2837 266.848 58.269 266.834 58.269C266.819 58.269 266.808 58.2837 266.801 58.313L266.064 61.503ZM274.598 56.3C274.635 56.3 274.664 56.3147 274.686 56.344C274.716 56.366 274.73 56.3953 274.73 56.432V57.51C274.73 57.5467 274.716 57.5797 274.686 57.609C274.664 57.631 274.635 57.642 274.598 57.642H272.926C272.89 57.642 272.871 57.6603 272.871 57.697V63.868C272.871 63.9047 272.857 63.9377 272.827 63.967C272.805 63.989 272.776 64 272.739 64H271.452C271.416 64 271.383 63.989 271.353 63.967C271.331 63.9377 271.32 63.9047 271.32 63.868V57.697C271.32 57.6603 271.302 57.642 271.265 57.642H269.648C269.612 57.642 269.579 57.631 269.549 57.609C269.527 57.5797 269.516 57.5467 269.516 57.51V56.432C269.516 56.3953 269.527 56.366 269.549 56.344C269.579 56.3147 269.612 56.3 269.648 56.3H274.598ZM277.881 64.088C277.375 64.088 276.932 64 276.55 63.824C276.169 63.6407 275.872 63.3877 275.659 63.065C275.454 62.735 275.351 62.3573 275.351 61.932V61.646C275.351 61.6093 275.362 61.58 275.384 61.558C275.414 61.5287 275.447 61.514 275.483 61.514H276.748C276.785 61.514 276.814 61.5287 276.836 61.558C276.866 61.58 276.88 61.6093 276.88 61.646V61.855C276.88 62.1117 276.976 62.328 277.166 62.504C277.357 62.6727 277.614 62.757 277.936 62.757C278.222 62.757 278.439 62.6837 278.585 62.537C278.739 62.3903 278.816 62.2033 278.816 61.976C278.816 61.8073 278.769 61.6643 278.673 61.547C278.578 61.4223 278.442 61.3087 278.266 61.206C278.098 61.096 277.834 60.9493 277.474 60.766C277.034 60.546 276.675 60.3407 276.396 60.15C276.118 59.9593 275.879 59.7137 275.681 59.413C275.483 59.1123 275.384 58.7493 275.384 58.324C275.384 57.8987 275.483 57.5283 275.681 57.213C275.887 56.8903 276.173 56.6447 276.539 56.476C276.906 56.3 277.324 56.212 277.793 56.212C278.285 56.212 278.721 56.3073 279.102 56.498C279.484 56.6813 279.781 56.9417 279.993 57.279C280.206 57.6163 280.312 58.005 280.312 58.445V58.665C280.312 58.7017 280.298 58.7347 280.268 58.764C280.246 58.786 280.217 58.797 280.18 58.797H278.915C278.879 58.797 278.846 58.786 278.816 58.764C278.794 58.7347 278.783 58.7017 278.783 58.665V58.467C278.783 58.203 278.692 57.983 278.508 57.807C278.325 57.631 278.076 57.543 277.76 57.543C277.496 57.543 277.287 57.6127 277.133 57.752C276.987 57.884 276.913 58.071 276.913 58.313C276.913 58.4817 276.957 58.6283 277.045 58.753C277.133 58.8777 277.269 58.9987 277.452 59.116C277.636 59.226 277.914 59.3727 278.288 59.556L278.519 59.688C278.945 59.9227 279.275 60.128 279.509 60.304C279.751 60.4727 279.953 60.689 280.114 60.953C280.276 61.217 280.356 61.536 280.356 61.91C280.356 62.5773 280.129 63.109 279.674 63.505C279.227 63.8937 278.629 64.088 277.881 64.088Z" fill="#B1B4C5"/>
<path id="BEATS Copy 3" d="M60.599 61.866C60.599 62.5627 60.3717 63.0943 59.917 63.461C59.4697 63.8203 58.8903 64 58.179 64H55.715C55.6783 64 55.6453 63.989 55.616 63.967C55.594 63.9377 55.583 63.9047 55.583 63.868V56.432C55.583 56.3953 55.594 56.366 55.616 56.344C55.6453 56.3147 55.6783 56.3 55.715 56.3H58.014C58.7987 56.3 59.4073 56.476 59.84 56.828C60.2727 57.1727 60.489 57.7007 60.489 58.412C60.489 59.138 60.2067 59.6623 59.642 59.985C59.6053 60.007 59.6017 60.029 59.631 60.051C60.2763 60.4177 60.599 61.0227 60.599 61.866ZM57.189 57.631C57.1523 57.631 57.134 57.6493 57.134 57.686V59.413C57.134 59.4497 57.1523 59.468 57.189 59.468H58.025C58.3183 59.468 58.5493 59.3873 58.718 59.226C58.8867 59.0647 58.971 58.841 58.971 58.555C58.971 58.2617 58.8867 58.0343 58.718 57.873C58.5567 57.7117 58.3257 57.631 58.025 57.631H57.189ZM58.113 62.658C58.4063 62.658 58.6337 62.5737 58.795 62.405C58.9637 62.229 59.048 61.9833 59.048 61.668C59.048 61.3527 58.9637 61.107 58.795 60.931C58.6337 60.7477 58.4063 60.656 58.113 60.656H57.189C57.1523 60.656 57.134 60.6743 57.134 60.711V62.603C57.134 62.6397 57.1523 62.658 57.189 62.658H58.113ZM66.2524 57.499C66.2524 57.5357 66.2377 57.5687 66.2084 57.598C66.1864 57.62 66.1571 57.631 66.1204 57.631H63.1724C63.1357 57.631 63.1174 57.6493 63.1174 57.686V59.402C63.1174 59.4387 63.1357 59.457 63.1724 59.457H65.0094C65.0461 59.457 65.0754 59.4717 65.0974 59.501C65.1267 59.523 65.1414 59.5523 65.1414 59.589V60.656C65.1414 60.6927 65.1267 60.7257 65.0974 60.755C65.0754 60.777 65.0461 60.788 65.0094 60.788H63.1724C63.1357 60.788 63.1174 60.8063 63.1174 60.843V62.614C63.1174 62.6507 63.1357 62.669 63.1724 62.669H66.1204C66.1571 62.669 66.1864 62.6837 66.2084 62.713C66.2377 62.735 66.2524 62.7643 66.2524 62.801V63.868C66.2524 63.9047 66.2377 63.9377 66.2084 63.967C66.1864 63.989 66.1571 64 66.1204 64H61.6984C61.6617 64 61.6287 63.989 61.5994 63.967C61.5774 63.9377 61.5664 63.9047 61.5664 63.868V56.432C61.5664 56.3953 61.5774 56.366 61.5994 56.344C61.6287 56.3147 61.6617 56.3 61.6984 56.3H66.1204C66.1571 56.3 66.1864 56.3147 66.2084 56.344C66.2377 56.366 66.2524 56.3953 66.2524 56.432V57.499ZM71.3405 64C71.2598 64 71.2085 63.9633 71.1865 63.89L70.9335 62.812C70.9262 62.7827 70.9078 62.768 70.8785 62.768H68.8215C68.7922 62.768 68.7738 62.7827 68.7665 62.812L68.5135 63.89C68.4915 63.9633 68.4438 64 68.3705 64H67.0395C66.9442 64 66.9075 63.9523 66.9295 63.857L68.9095 56.41C68.9315 56.3367 68.9828 56.3 69.0635 56.3H70.6585C70.7392 56.3 70.7905 56.3367 70.8125 56.41L72.7925 63.857L72.8035 63.901C72.8035 63.967 72.7632 64 72.6825 64H71.3405ZM69.0635 61.503C69.0562 61.525 69.0598 61.5433 69.0745 61.558C69.0892 61.5653 69.1038 61.569 69.1185 61.569H70.5705C70.5852 61.569 70.5998 61.5653 70.6145 61.558C70.6292 61.5433 70.6328 61.525 70.6255 61.503L69.8665 58.313C69.8592 58.2837 69.8482 58.269 69.8335 58.269C69.8188 58.269 69.8078 58.2837 69.8005 58.313L69.0635 61.503ZM77.5985 56.3C77.6351 56.3 77.6645 56.3147 77.6865 56.344C77.7158 56.366 77.7305 56.3953 77.7305 56.432V57.51C77.7305 57.5467 77.7158 57.5797 77.6865 57.609C77.6645 57.631 77.6351 57.642 77.5985 57.642H75.9265C75.8898 57.642 75.8715 57.6603 75.8715 57.697V63.868C75.8715 63.9047 75.8568 63.9377 75.8275 63.967C75.8055 63.989 75.7761 64 75.7395 64H74.4525C74.4158 64 74.3828 63.989 74.3535 63.967C74.3315 63.9377 74.3205 63.9047 74.3205 63.868V57.697C74.3205 57.6603 74.3021 57.642 74.2655 57.642H72.6485C72.6118 57.642 72.5788 57.631 72.5495 57.609C72.5275 57.5797 72.5165 57.5467 72.5165 57.51V56.432C72.5165 56.3953 72.5275 56.366 72.5495 56.344C72.5788 56.3147 72.6118 56.3 72.6485 56.3H77.5985ZM80.8813 64.088C80.3753 64.088 79.9316 64 79.5503 63.824C79.1689 63.6407 78.8719 63.3877 78.6593 63.065C78.4539 62.735 78.3513 62.3573 78.3513 61.932V61.646C78.3513 61.6093 78.3623 61.58 78.3843 61.558C78.4136 61.5287 78.4466 61.514 78.4833 61.514H79.7483C79.7849 61.514 79.8143 61.5287 79.8363 61.558C79.8656 61.58 79.8803 61.6093 79.8803 61.646V61.855C79.8803 62.1117 79.9756 62.328 80.1663 62.504C80.3569 62.6727 80.6136 62.757 80.9363 62.757C81.2223 62.757 81.4386 62.6837 81.5853 62.537C81.7393 62.3903 81.8163 62.2033 81.8163 61.976C81.8163 61.8073 81.7686 61.6643 81.6733 61.547C81.5779 61.4223 81.4423 61.3087 81.2663 61.206C81.0976 61.096 80.8336 60.9493 80.4743 60.766C80.0343 60.546 79.6749 60.3407 79.3963 60.15C79.1176 59.9593 78.8793 59.7137 78.6813 59.413C78.4833 59.1123 78.3843 58.7493 78.3843 58.324C78.3843 57.8987 78.4833 57.5283 78.6813 57.213C78.8866 56.8903 79.1726 56.6447 79.5393 56.476C79.9059 56.3 80.3239 56.212 80.7933 56.212C81.2846 56.212 81.7209 56.3073 82.1023 56.498C82.4836 56.6813 82.7806 56.9417 82.9933 57.279C83.2059 57.6163 83.3123 58.005 83.3123 58.445V58.665C83.3123 58.7017 83.2976 58.7347 83.2683 58.764C83.2463 58.786 83.2169 58.797 83.1803 58.797H81.9153C81.8786 58.797 81.8456 58.786 81.8163 58.764C81.7943 58.7347 81.7833 58.7017 81.7833 58.665V58.467C81.7833 58.203 81.6916 57.983 81.5083 57.807C81.3249 57.631 81.0756 57.543 80.7603 57.543C80.4963 57.543 80.2873 57.6127 80.1333 57.752C79.9866 57.884 79.9133 58.071 79.9133 58.313C79.9133 58.4817 79.9573 58.6283 80.0453 58.753C80.1333 58.8777 80.2689 58.9987 80.4523 59.116C80.6356 59.226 80.9143 59.3727 81.2883 59.556L81.5193 59.688C81.9446 59.9227 82.2746 60.128 82.5093 60.304C82.7513 60.4727 82.9529 60.689 83.1143 60.953C83.2756 61.217 83.3563 61.536 83.3563 61.91C83.3563 62.5773 83.1289 63.109 82.6743 63.505C82.2269 63.8937 81.6293 64.088 80.8813 64.088Z" fill="#B1B4C5"/>
<path id="BEATS Copy 4" d="M310.599 222.866C310.599 223.563 310.372 224.094 309.917 224.461C309.47 224.82 308.89 225 308.179 225H305.715C305.678 225 305.645 224.989 305.616 224.967C305.594 224.938 305.583 224.905 305.583 224.868V217.432C305.583 217.395 305.594 217.366 305.616 217.344C305.645 217.315 305.678 217.3 305.715 217.3H308.014C308.799 217.3 309.407 217.476 309.84 217.828C310.273 218.173 310.489 218.701 310.489 219.412C310.489 220.138 310.207 220.662 309.642 220.985C309.605 221.007 309.602 221.029 309.631 221.051C310.276 221.418 310.599 222.023 310.599 222.866ZM307.189 218.631C307.152 218.631 307.134 218.649 307.134 218.686V220.413C307.134 220.45 307.152 220.468 307.189 220.468H308.025C308.318 220.468 308.549 220.387 308.718 220.226C308.887 220.065 308.971 219.841 308.971 219.555C308.971 219.262 308.887 219.034 308.718 218.873C308.557 218.712 308.326 218.631 308.025 218.631H307.189ZM308.113 223.658C308.406 223.658 308.634 223.574 308.795 223.405C308.964 223.229 309.048 222.983 309.048 222.668C309.048 222.353 308.964 222.107 308.795 221.931C308.634 221.748 308.406 221.656 308.113 221.656H307.189C307.152 221.656 307.134 221.674 307.134 221.711V223.603C307.134 223.64 307.152 223.658 307.189 223.658H308.113ZM316.252 218.499C316.252 218.536 316.238 218.569 316.208 218.598C316.186 218.62 316.157 218.631 316.12 218.631H313.172C313.136 218.631 313.117 218.649 313.117 218.686V220.402C313.117 220.439 313.136 220.457 313.172 220.457H315.009C315.046 220.457 315.075 220.472 315.097 220.501C315.127 220.523 315.141 220.552 315.141 220.589V221.656C315.141 221.693 315.127 221.726 315.097 221.755C315.075 221.777 315.046 221.788 315.009 221.788H313.172C313.136 221.788 313.117 221.806 313.117 221.843V223.614C313.117 223.651 313.136 223.669 313.172 223.669H316.12C316.157 223.669 316.186 223.684 316.208 223.713C316.238 223.735 316.252 223.764 316.252 223.801V224.868C316.252 224.905 316.238 224.938 316.208 224.967C316.186 224.989 316.157 225 316.12 225H311.698C311.662 225 311.629 224.989 311.599 224.967C311.577 224.938 311.566 224.905 311.566 224.868V217.432C311.566 217.395 311.577 217.366 311.599 217.344C311.629 217.315 311.662 217.3 311.698 217.3H316.12C316.157 217.3 316.186 217.315 316.208 217.344C316.238 217.366 316.252 217.395 316.252 217.432V218.499ZM321.341 225C321.26 225 321.209 224.963 321.187 224.89L320.934 223.812C320.926 223.783 320.908 223.768 320.879 223.768H318.822C318.792 223.768 318.774 223.783 318.767 223.812L318.514 224.89C318.492 224.963 318.444 225 318.371 225H317.04C316.944 225 316.908 224.952 316.93 224.857L318.91 217.41C318.932 217.337 318.983 217.3 319.064 217.3H320.659C320.739 217.3 320.791 217.337 320.813 217.41L322.793 224.857L322.804 224.901C322.804 224.967 322.763 225 322.683 225H321.341ZM319.064 222.503C319.056 222.525 319.06 222.543 319.075 222.558C319.089 222.565 319.104 222.569 319.119 222.569H320.571C320.585 222.569 320.6 222.565 320.615 222.558C320.629 222.543 320.633 222.525 320.626 222.503L319.867 219.313C319.859 219.284 319.848 219.269 319.834 219.269C319.819 219.269 319.808 219.284 319.801 219.313L319.064 222.503ZM327.598 217.3C327.635 217.3 327.664 217.315 327.686 217.344C327.716 217.366 327.73 217.395 327.73 217.432V218.51C327.73 218.547 327.716 218.58 327.686 218.609C327.664 218.631 327.635 218.642 327.598 218.642H325.926C325.89 218.642 325.871 218.66 325.871 218.697V224.868C325.871 224.905 325.857 224.938 325.827 224.967C325.805 224.989 325.776 225 325.739 225H324.452C324.416 225 324.383 224.989 324.353 224.967C324.331 224.938 324.32 224.905 324.32 224.868V218.697C324.32 218.66 324.302 218.642 324.265 218.642H322.648C322.612 218.642 322.579 218.631 322.549 218.609C322.527 218.58 322.516 218.547 322.516 218.51V217.432C322.516 217.395 322.527 217.366 322.549 217.344C322.579 217.315 322.612 217.3 322.648 217.3H327.598ZM330.881 225.088C330.375 225.088 329.932 225 329.55 224.824C329.169 224.641 328.872 224.388 328.659 224.065C328.454 223.735 328.351 223.357 328.351 222.932V222.646C328.351 222.609 328.362 222.58 328.384 222.558C328.414 222.529 328.447 222.514 328.483 222.514H329.748C329.785 222.514 329.814 222.529 329.836 222.558C329.866 222.58 329.88 222.609 329.88 222.646V222.855C329.88 223.112 329.976 223.328 330.166 223.504C330.357 223.673 330.614 223.757 330.936 223.757C331.222 223.757 331.439 223.684 331.585 223.537C331.739 223.39 331.816 223.203 331.816 222.976C331.816 222.807 331.769 222.664 331.673 222.547C331.578 222.422 331.442 222.309 331.266 222.206C331.098 222.096 330.834 221.949 330.474 221.766C330.034 221.546 329.675 221.341 329.396 221.15C329.118 220.959 328.879 220.714 328.681 220.413C328.483 220.112 328.384 219.749 328.384 219.324C328.384 218.899 328.483 218.528 328.681 218.213C328.887 217.89 329.173 217.645 329.539 217.476C329.906 217.3 330.324 217.212 330.793 217.212C331.285 217.212 331.721 217.307 332.102 217.498C332.484 217.681 332.781 217.942 332.993 218.279C333.206 218.616 333.312 219.005 333.312 219.445V219.665C333.312 219.702 333.298 219.735 333.268 219.764C333.246 219.786 333.217 219.797 333.18 219.797H331.915C331.879 219.797 331.846 219.786 331.816 219.764C331.794 219.735 331.783 219.702 331.783 219.665V219.467C331.783 219.203 331.692 218.983 331.508 218.807C331.325 218.631 331.076 218.543 330.76 218.543C330.496 218.543 330.287 218.613 330.133 218.752C329.987 218.884 329.913 219.071 329.913 219.313C329.913 219.482 329.957 219.628 330.045 219.753C330.133 219.878 330.269 219.999 330.452 220.116C330.636 220.226 330.914 220.373 331.288 220.556L331.519 220.688C331.945 220.923 332.275 221.128 332.509 221.304C332.751 221.473 332.953 221.689 333.114 221.953C333.276 222.217 333.356 222.536 333.356 222.91C333.356 223.577 333.129 224.109 332.674 224.505C332.227 224.894 331.629 225.088 330.881 225.088Z" fill="#B1B4C5"/>
<path id="BEATS Copy 5" d="M6.599 222.866C6.599 223.563 6.37167 224.094 5.917 224.461C5.46967 224.82 4.89033 225 4.179 225H1.715C1.67833 225 1.64533 224.989 1.616 224.967C1.594 224.938 1.583 224.905 1.583 224.868V217.432C1.583 217.395 1.594 217.366 1.616 217.344C1.64533 217.315 1.67833 217.3 1.715 217.3H4.014C4.79867 217.3 5.40733 217.476 5.84 217.828C6.27267 218.173 6.489 218.701 6.489 219.412C6.489 220.138 6.20667 220.662 5.642 220.985C5.60533 221.007 5.60167 221.029 5.631 221.051C6.27633 221.418 6.599 222.023 6.599 222.866ZM3.189 218.631C3.15233 218.631 3.134 218.649 3.134 218.686V220.413C3.134 220.45 3.15233 220.468 3.189 220.468H4.025C4.31833 220.468 4.54933 220.387 4.718 220.226C4.88667 220.065 4.971 219.841 4.971 219.555C4.971 219.262 4.88667 219.034 4.718 218.873C4.55667 218.712 4.32567 218.631 4.025 218.631H3.189ZM4.113 223.658C4.40633 223.658 4.63367 223.574 4.795 223.405C4.96367 223.229 5.048 222.983 5.048 222.668C5.048 222.353 4.96367 222.107 4.795 221.931C4.63367 221.748 4.40633 221.656 4.113 221.656H3.189C3.15233 221.656 3.134 221.674 3.134 221.711V223.603C3.134 223.64 3.15233 223.658 3.189 223.658H4.113ZM12.2524 218.499C12.2524 218.536 12.2377 218.569 12.2084 218.598C12.1864 218.62 12.1571 218.631 12.1204 218.631H9.1724C9.13573 218.631 9.1174 218.649 9.1174 218.686V220.402C9.1174 220.439 9.13573 220.457 9.1724 220.457H11.0094C11.0461 220.457 11.0754 220.472 11.0974 220.501C11.1267 220.523 11.1414 220.552 11.1414 220.589V221.656C11.1414 221.693 11.1267 221.726 11.0974 221.755C11.0754 221.777 11.0461 221.788 11.0094 221.788H9.1724C9.13573 221.788 9.1174 221.806 9.1174 221.843V223.614C9.1174 223.651 9.13573 223.669 9.1724 223.669H12.1204C12.1571 223.669 12.1864 223.684 12.2084 223.713C12.2377 223.735 12.2524 223.764 12.2524 223.801V224.868C12.2524 224.905 12.2377 224.938 12.2084 224.967C12.1864 224.989 12.1571 225 12.1204 225H7.6984C7.66173 225 7.62873 224.989 7.5994 224.967C7.5774 224.938 7.5664 224.905 7.5664 224.868V217.432C7.5664 217.395 7.5774 217.366 7.5994 217.344C7.62873 217.315 7.66173 217.3 7.6984 217.3H12.1204C12.1571 217.3 12.1864 217.315 12.2084 217.344C12.2377 217.366 12.2524 217.395 12.2524 217.432V218.499ZM17.3405 225C17.2598 225 17.2085 224.963 17.1865 224.89L16.9335 223.812C16.9262 223.783 16.9078 223.768 16.8785 223.768H14.8215C14.7922 223.768 14.7738 223.783 14.7665 223.812L14.5135 224.89C14.4915 224.963 14.4438 225 14.3705 225H13.0395C12.9442 225 12.9075 224.952 12.9295 224.857L14.9095 217.41C14.9315 217.337 14.9828 217.3 15.0635 217.3H16.6585C16.7392 217.3 16.7905 217.337 16.8125 217.41L18.7925 224.857L18.8035 224.901C18.8035 224.967 18.7632 225 18.6825 225H17.3405ZM15.0635 222.503C15.0562 222.525 15.0598 222.543 15.0745 222.558C15.0892 222.565 15.1038 222.569 15.1185 222.569H16.5705C16.5852 222.569 16.5998 222.565 16.6145 222.558C16.6292 222.543 16.6328 222.525 16.6255 222.503L15.8665 219.313C15.8592 219.284 15.8482 219.269 15.8335 219.269C15.8188 219.269 15.8078 219.284 15.8005 219.313L15.0635 222.503ZM23.5985 217.3C23.6351 217.3 23.6645 217.315 23.6865 217.344C23.7158 217.366 23.7305 217.395 23.7305 217.432V218.51C23.7305 218.547 23.7158 218.58 23.6865 218.609C23.6645 218.631 23.6351 218.642 23.5985 218.642H21.9265C21.8898 218.642 21.8715 218.66 21.8715 218.697V224.868C21.8715 224.905 21.8568 224.938 21.8275 224.967C21.8055 224.989 21.7761 225 21.7395 225H20.4525C20.4158 225 20.3828 224.989 20.3535 224.967C20.3315 224.938 20.3205 224.905 20.3205 224.868V218.697C20.3205 218.66 20.3021 218.642 20.2655 218.642H18.6485C18.6118 218.642 18.5788 218.631 18.5495 218.609C18.5275 218.58 18.5165 218.547 18.5165 218.51V217.432C18.5165 217.395 18.5275 217.366 18.5495 217.344C18.5788 217.315 18.6118 217.3 18.6485 217.3H23.5985ZM26.8813 225.088C26.3753 225.088 25.9316 225 25.5503 224.824C25.1689 224.641 24.8719 224.388 24.6593 224.065C24.4539 223.735 24.3513 223.357 24.3513 222.932V222.646C24.3513 222.609 24.3623 222.58 24.3843 222.558C24.4136 222.529 24.4466 222.514 24.4833 222.514H25.7483C25.7849 222.514 25.8143 222.529 25.8363 222.558C25.8656 222.58 25.8803 222.609 25.8803 222.646V222.855C25.8803 223.112 25.9756 223.328 26.1663 223.504C26.3569 223.673 26.6136 223.757 26.9363 223.757C27.2223 223.757 27.4386 223.684 27.5853 223.537C27.7393 223.39 27.8163 223.203 27.8163 222.976C27.8163 222.807 27.7686 222.664 27.6733 222.547C27.5779 222.422 27.4423 222.309 27.2663 222.206C27.0976 222.096 26.8336 221.949 26.4743 221.766C26.0343 221.546 25.6749 221.341 25.3963 221.15C25.1176 220.959 24.8793 220.714 24.6813 220.413C24.4833 220.112 24.3843 219.749 24.3843 219.324C24.3843 218.899 24.4833 218.528 24.6813 218.213C24.8866 217.89 25.1726 217.645 25.5393 217.476C25.9059 217.3 26.3239 217.212 26.7933 217.212C27.2846 217.212 27.7209 217.307 28.1023 217.498C28.4836 217.681 28.7806 217.942 28.9933 218.279C29.2059 218.616 29.3123 219.005 29.3123 219.445V219.665C29.3123 219.702 29.2976 219.735 29.2683 219.764C29.2463 219.786 29.2169 219.797 29.1803 219.797H27.9153C27.8786 219.797 27.8456 219.786 27.8163 219.764C27.7943 219.735 27.7833 219.702 27.7833 219.665V219.467C27.7833 219.203 27.6916 218.983 27.5083 218.807C27.3249 218.631 27.0756 218.543 26.7603 218.543C26.4963 218.543 26.2873 218.613 26.1333 218.752C25.9866 218.884 25.9133 219.071 25.9133 219.313C25.9133 219.482 25.9573 219.628 26.0453 219.753C26.1333 219.878 26.2689 219.999 26.4523 220.116C26.6356 220.226 26.9143 220.373 27.2883 220.556L27.5193 220.688C27.9446 220.923 28.2746 221.128 28.5093 221.304C28.7513 221.473 28.9529 221.689 29.1143 221.953C29.2756 222.217 29.3563 222.536 29.3563 222.91C29.3563 223.577 29.1289 224.109 28.6743 224.505C28.2269 224.894 27.6293 225.088 26.8813 225.088Z" fill="#B1B4C5"/>
<path id="BEATS Copy 6" d="M159.599 325.866C159.599 326.563 159.372 327.094 158.917 327.461C158.47 327.82 157.89 328 157.179 328H154.715C154.678 328 154.645 327.989 154.616 327.967C154.594 327.938 154.583 327.905 154.583 327.868V320.432C154.583 320.395 154.594 320.366 154.616 320.344C154.645 320.315 154.678 320.3 154.715 320.3H157.014C157.799 320.3 158.407 320.476 158.84 320.828C159.273 321.173 159.489 321.701 159.489 322.412C159.489 323.138 159.207 323.662 158.642 323.985C158.605 324.007 158.602 324.029 158.631 324.051C159.276 324.418 159.599 325.023 159.599 325.866ZM156.189 321.631C156.152 321.631 156.134 321.649 156.134 321.686V323.413C156.134 323.45 156.152 323.468 156.189 323.468H157.025C157.318 323.468 157.549 323.387 157.718 323.226C157.887 323.065 157.971 322.841 157.971 322.555C157.971 322.262 157.887 322.034 157.718 321.873C157.557 321.712 157.326 321.631 157.025 321.631H156.189ZM157.113 326.658C157.406 326.658 157.634 326.574 157.795 326.405C157.964 326.229 158.048 325.983 158.048 325.668C158.048 325.353 157.964 325.107 157.795 324.931C157.634 324.748 157.406 324.656 157.113 324.656H156.189C156.152 324.656 156.134 324.674 156.134 324.711V326.603C156.134 326.64 156.152 326.658 156.189 326.658H157.113ZM165.252 321.499C165.252 321.536 165.238 321.569 165.208 321.598C165.186 321.62 165.157 321.631 165.12 321.631H162.172C162.136 321.631 162.117 321.649 162.117 321.686V323.402C162.117 323.439 162.136 323.457 162.172 323.457H164.009C164.046 323.457 164.075 323.472 164.097 323.501C164.127 323.523 164.141 323.552 164.141 323.589V324.656C164.141 324.693 164.127 324.726 164.097 324.755C164.075 324.777 164.046 324.788 164.009 324.788H162.172C162.136 324.788 162.117 324.806 162.117 324.843V326.614C162.117 326.651 162.136 326.669 162.172 326.669H165.12C165.157 326.669 165.186 326.684 165.208 326.713C165.238 326.735 165.252 326.764 165.252 326.801V327.868C165.252 327.905 165.238 327.938 165.208 327.967C165.186 327.989 165.157 328 165.12 328H160.698C160.662 328 160.629 327.989 160.599 327.967C160.577 327.938 160.566 327.905 160.566 327.868V320.432C160.566 320.395 160.577 320.366 160.599 320.344C160.629 320.315 160.662 320.3 160.698 320.3H165.12C165.157 320.3 165.186 320.315 165.208 320.344C165.238 320.366 165.252 320.395 165.252 320.432V321.499ZM170.341 328C170.26 328 170.209 327.963 170.187 327.89L169.934 326.812C169.926 326.783 169.908 326.768 169.879 326.768H167.822C167.792 326.768 167.774 326.783 167.767 326.812L167.514 327.89C167.492 327.963 167.444 328 167.371 328H166.04C165.944 328 165.908 327.952 165.93 327.857L167.91 320.41C167.932 320.337 167.983 320.3 168.064 320.3H169.659C169.739 320.3 169.791 320.337 169.813 320.41L171.793 327.857L171.804 327.901C171.804 327.967 171.763 328 171.683 328H170.341ZM168.064 325.503C168.056 325.525 168.06 325.543 168.075 325.558C168.089 325.565 168.104 325.569 168.119 325.569H169.571C169.585 325.569 169.6 325.565 169.615 325.558C169.629 325.543 169.633 325.525 169.626 325.503L168.867 322.313C168.859 322.284 168.848 322.269 168.834 322.269C168.819 322.269 168.808 322.284 168.801 322.313L168.064 325.503ZM176.598 320.3C176.635 320.3 176.664 320.315 176.686 320.344C176.716 320.366 176.73 320.395 176.73 320.432V321.51C176.73 321.547 176.716 321.58 176.686 321.609C176.664 321.631 176.635 321.642 176.598 321.642H174.926C174.89 321.642 174.871 321.66 174.871 321.697V327.868C174.871 327.905 174.857 327.938 174.827 327.967C174.805 327.989 174.776 328 174.739 328H173.452C173.416 328 173.383 327.989 173.353 327.967C173.331 327.938 173.32 327.905 173.32 327.868V321.697C173.32 321.66 173.302 321.642 173.265 321.642H171.648C171.612 321.642 171.579 321.631 171.549 321.609C171.527 321.58 171.516 321.547 171.516 321.51V320.432C171.516 320.395 171.527 320.366 171.549 320.344C171.579 320.315 171.612 320.3 171.648 320.3H176.598ZM179.881 328.088C179.375 328.088 178.932 328 178.55 327.824C178.169 327.641 177.872 327.388 177.659 327.065C177.454 326.735 177.351 326.357 177.351 325.932V325.646C177.351 325.609 177.362 325.58 177.384 325.558C177.414 325.529 177.447 325.514 177.483 325.514H178.748C178.785 325.514 178.814 325.529 178.836 325.558C178.866 325.58 178.88 325.609 178.88 325.646V325.855C178.88 326.112 178.976 326.328 179.166 326.504C179.357 326.673 179.614 326.757 179.936 326.757C180.222 326.757 180.439 326.684 180.585 326.537C180.739 326.39 180.816 326.203 180.816 325.976C180.816 325.807 180.769 325.664 180.673 325.547C180.578 325.422 180.442 325.309 180.266 325.206C180.098 325.096 179.834 324.949 179.474 324.766C179.034 324.546 178.675 324.341 178.396 324.15C178.118 323.959 177.879 323.714 177.681 323.413C177.483 323.112 177.384 322.749 177.384 322.324C177.384 321.899 177.483 321.528 177.681 321.213C177.887 320.89 178.173 320.645 178.539 320.476C178.906 320.3 179.324 320.212 179.793 320.212C180.285 320.212 180.721 320.307 181.102 320.498C181.484 320.681 181.781 320.942 181.993 321.279C182.206 321.616 182.312 322.005 182.312 322.445V322.665C182.312 322.702 182.298 322.735 182.268 322.764C182.246 322.786 182.217 322.797 182.18 322.797H180.915C180.879 322.797 180.846 322.786 180.816 322.764C180.794 322.735 180.783 322.702 180.783 322.665V322.467C180.783 322.203 180.692 321.983 180.508 321.807C180.325 321.631 180.076 321.543 179.76 321.543C179.496 321.543 179.287 321.613 179.133 321.752C178.987 321.884 178.913 322.071 178.913 322.313C178.913 322.482 178.957 322.628 179.045 322.753C179.133 322.878 179.269 322.999 179.452 323.116C179.636 323.226 179.914 323.373 180.288 323.556L180.519 323.688C180.945 323.923 181.275 324.128 181.509 324.304C181.751 324.473 181.953 324.689 182.114 324.953C182.276 325.217 182.356 325.536 182.356 325.91C182.356 326.577 182.129 327.109 181.674 327.505C181.227 327.894 180.629 328.088 179.881 328.088Z" fill="#B1B4C5"/>
</g>
<defs>
<linearGradient id="paint0_linear_0_784" x1="233" y1="92" x2="233" y2="192.345" gradientUnits="userSpaceOnUse">
<stop stop-color="white" stop-opacity="0.0966455"/>
<stop offset="1" stop-color="white" stop-opacity="0.01"/>
</linearGradient>
<linearGradient id="paint1_linear_0_784" x1="0" y1="92" x2="0" y2="192.345" gradientUnits="userSpaceOnUse">
<stop stop-color="white" stop-opacity="0.0966455"/>
<stop offset="1" stop-color="white" stop-opacity="0.01"/>
</linearGradient>
<linearGradient id="paint2_linear_0_784" x1="117" y1="0" x2="117" y2="100.345" gradientUnits="userSpaceOnUse">
<stop stop-color="white" stop-opacity="0.0966455"/>
<stop offset="1" stop-color="white" stop-opacity="0.01"/>
</linearGradient>
<linearGradient id="paint3_linear_0_784" x1="187" y1="225" x2="187" y2="325.345" gradientUnits="userSpaceOnUse">
<stop stop-color="white" stop-opacity="0.0966455"/>
<stop offset="1" stop-color="white" stop-opacity="0.01"/>
</linearGradient>
<linearGradient id="paint4_linear_0_784" x1="46" y1="225" x2="46" y2="325.345" gradientUnits="userSpaceOnUse">
<stop stop-color="white" stop-opacity="0.0966455"/>
<stop offset="1" stop-color="white" stop-opacity="0.01"/>
</linearGradient>
<clipPath id="clip0_0_784">
<rect width="336" height="330" fill="white"/>
</clipPath>
<clipPath id="clip1_0_784">
<rect width="88" height="21" fill="white" transform="translate(124 131)"/>
</clipPath>
<clipPath id="clip2_0_784">
<rect width="88" height="22" fill="white" transform="translate(123.365 162.291) rotate(40)"/>
</clipPath>
<clipPath id="clip3_0_784">
<rect width="88" height="22" fill="white" transform="translate(145.223 218.856) rotate(-40)"/>
</clipPath>
<clipPath id="clip4_0_784">
<rect width="88" height="22" fill="white" transform="translate(201.712 211.109) rotate(-110)"/>
</clipPath>
<clipPath id="clip5_0_784">
<rect width="88" height="22" fill="white" transform="translate(164.385 128.416) rotate(110)"/>
</clipPath>
</defs>
</svg>
